<svg width="1366" height="403" viewBox="0 0 1366 403" fill="none" xmlns="http://www.w3.org/2000/svg">
<g clip-path="url(#clip0_125_3)">
<path d="M0 0H1366V403H0V0Z" fill="#040618"/>
<g filter="url(#filter0_f_125_3)">
<path d="M828 289C828 257.704 812.671 227.691 785.384 205.561C758.097 183.432 721.089 171 682.5 171C643.911 171 606.903 183.432 579.616 205.561C552.329 227.691 537 257.704 537 289L682.5 289H828Z" fill="#4B4881"/>
</g>
<g filter="url(#filter1_b_125_3)">
<ellipse cx="683" cy="339.5" rx="446" ry="90.5" fill="url(#paint0_radial_125_3)"/>
<path d="M1128.95 339.5C1128.95 345.73 1125.84 351.818 1119.9 357.703C1113.97 363.589 1105.21 369.269 1093.93 374.682C1071.37 385.506 1038.71 395.256 998.36 403.444C917.654 419.821 806.157 429.95 683 429.95C559.843 429.95 448.346 419.821 367.64 403.444C327.287 395.256 294.634 385.506 272.071 374.682C260.789 369.269 252.032 363.589 246.096 357.703C240.161 351.818 237.05 345.73 237.05 339.5C237.05 333.27 240.161 327.182 246.096 321.297C252.032 315.411 260.789 309.731 272.071 304.318C294.634 293.494 327.287 283.744 367.64 275.556C448.346 259.179 559.843 249.05 683 249.05C806.157 249.05 917.654 259.179 998.36 275.556C1038.71 283.744 1071.37 293.494 1093.93 304.318C1105.21 309.731 1113.97 315.411 1119.9 321.297C1125.84 327.182 1128.95 333.27 1128.95 339.5Z" stroke="url(#paint1_radial_125_3)" stroke-width="0.1"/>
</g>
<mask id="path-5-inside-1_125_3" fill="white">
<path fill-rule="evenodd" clip-rule="evenodd" d="M1029 622.902C1197.77 586.263 1309 523.622 1309 452.5C1309 339.558 1028.51 248 682.5 248C437.259 248 224.929 293.995 122.057 361H92V384.01C68.6895 405.422 56 428.478 56 452.5C56 476.522 68.6895 499.578 92 520.99V684H1029V622.902Z"/>
</mask>
<path fill-rule="evenodd" clip-rule="evenodd" d="M1029 622.902C1197.77 586.263 1309 523.622 1309 452.5C1309 339.558 1028.51 248 682.5 248C437.259 248 224.929 293.995 122.057 361H92V384.01C68.6895 405.422 56 428.478 56 452.5C56 476.522 68.6895 499.578 92 520.99V684H1029V622.902Z" fill="#040618"/>
<path d="M1029 622.902L1028.58 620.948L1027 621.29V622.902H1029ZM122.057 361V363H122.651L123.148 362.676L122.057 361ZM92 361V359H90V361H92ZM92 384.01L93.353 385.483L94 384.889V384.01H92ZM92 520.99H94V520.111L93.353 519.517L92 520.99ZM92 684H90V686H92V684ZM1029 684V686H1031V684H1029ZM1307 452.5C1307 486.948 1280.02 519.87 1231.27 548.914C1182.62 577.891 1112.85 602.652 1028.58 620.948L1029.42 624.857C1113.92 606.513 1184.15 581.634 1233.31 552.35C1282.36 523.134 1311 489.173 1311 452.5H1307ZM682.5 250C855.352 250 1011.76 272.872 1124.88 309.798C1181.45 328.264 1227.09 350.21 1258.54 374.483C1290.02 398.777 1307 425.158 1307 452.5H1311C1311 423.371 1292.91 395.954 1260.99 371.316C1229.04 346.657 1182.92 324.536 1126.12 305.995C1012.5 268.907 855.655 246 682.5 246V250ZM123.148 362.676C174.284 329.369 252.808 301.184 349.293 281.332C445.741 261.488 559.998 250 682.5 250V246C559.761 246 445.231 257.509 348.487 277.414C251.779 297.312 172.701 325.627 120.965 359.324L123.148 362.676ZM92 363H122.057V359H92V363ZM94 384.01V361H90V384.01H94ZM58 452.5C58 429.237 70.2806 406.677 93.353 385.483L90.647 382.537C67.0985 404.168 54 427.718 54 452.5H58ZM93.353 519.517C70.2806 498.323 58 475.763 58 452.5H54C54 477.282 67.0985 500.832 90.647 522.463L93.353 519.517ZM94 684V520.99H90V684H94ZM1029 682H92V686H1029V682ZM1027 622.902V684H1031V622.902H1027Z" fill="url(#paint2_radial_125_3)" mask="url(#path-5-inside-1_125_3)"/>
<path d="M1029 622.902L1028.58 620.948L1027 621.29V622.902H1029ZM122.057 361V363H122.651L123.148 362.676L122.057 361ZM92 361V359H90V361H92ZM92 384.01L93.353 385.483L94 384.889V384.01H92ZM92 520.99H94V520.111L93.353 519.517L92 520.99ZM92 684H90V686H92V684ZM1029 684V686H1031V684H1029ZM1307 452.5C1307 486.948 1280.02 519.87 1231.27 548.914C1182.62 577.891 1112.85 602.652 1028.58 620.948L1029.42 624.857C1113.92 606.513 1184.15 581.634 1233.31 552.35C1282.36 523.134 1311 489.173 1311 452.5H1307ZM682.5 250C855.352 250 1011.76 272.872 1124.88 309.798C1181.45 328.264 1227.09 350.21 1258.54 374.483C1290.02 398.777 1307 425.158 1307 452.5H1311C1311 423.371 1292.91 395.954 1260.99 371.316C1229.04 346.657 1182.92 324.536 1126.12 305.995C1012.5 268.907 855.655 246 682.5 246V250ZM123.148 362.676C174.284 329.369 252.808 301.184 349.293 281.332C445.741 261.488 559.998 250 682.5 250V246C559.761 246 445.231 257.509 348.487 277.414C251.779 297.312 172.701 325.627 120.965 359.324L123.148 362.676ZM92 363H122.057V359H92V363ZM94 384.01V361H90V384.01H94ZM58 452.5C58 429.237 70.2806 406.677 93.353 385.483L90.647 382.537C67.0985 404.168 54 427.718 54 452.5H58ZM93.353 519.517C70.2806 498.323 58 475.763 58 452.5H54C54 477.282 67.0985 500.832 90.647 522.463L93.353 519.517ZM94 684V520.99H90V684H94ZM1029 682H92V686H1029V682ZM1027 622.902V684H1031V622.902H1027Z" fill="url(#paint3_linear_125_3)" fill-opacity="0.2" mask="url(#path-5-inside-1_125_3)"/>
<circle cx="815.5" cy="100.5" r="0.5" fill="#D9D9D9"/>
<circle cx="927.5" cy="250.5" r="0.5" fill="#D9D9D9"/>
<path fill-rule="evenodd" clip-rule="evenodd" d="M697 123L696.818 124.8L695.999 125L695.182 124.8L695 123H697ZM696 123.589H695.646L695.669 123.815H696H696.581L696.575 123.874L696.516 124.455L696.512 124.493L696 124.618L695.999 124.618L695.486 124.493L695.451 124.146H695.702L695.72 124.322L695.999 124.388L695.999 124.388L696.278 124.322L696.307 124.036H696H695.44L695.378 123.427L695.372 123.368H696H696.626L696.62 123.427L696.609 123.539L696.604 123.589H696Z" fill="white"/>
<ellipse cx="731.516" cy="178.434" rx="1.01075" ry="1.20755" fill="#4B4881"/>
<ellipse cx="684.011" cy="169.981" rx="1.01075" ry="1.20755" fill="#4B4881"/>
<ellipse cx="758.806" cy="142.208" rx="1.01075" ry="1.20755" fill="#4B4881"/>
<ellipse cx="760.323" cy="204.396" rx="0.505376" ry="0.603774" fill="#4B4881"/>
<ellipse cx="776.495" cy="200.774" rx="0.505376" ry="0.603774" fill="#4B4881"/>
<ellipse cx="760.323" cy="170.585" rx="0.505376" ry="0.603774" fill="#4B4881"/>
<ellipse cx="736.065" cy="151.264" rx="0.505376" ry="0.603774" fill="#4B4881"/>
<ellipse cx="707.763" cy="193.528" rx="0.505376" ry="0.603774" fill="#4B4881"/>
<ellipse cx="708.774" cy="154.887" rx="0.505376" ry="0.603774" fill="#4B4881"/>
<circle cx="586" cy="178" r="1" transform="rotate(-90 586 178)" fill="#4B4881"/>
<circle cx="579" cy="225" r="1" transform="rotate(-90 579 225)" fill="#4B4881"/>
<circle cx="556" cy="151" r="1" transform="rotate(-90 556 151)" fill="#4B4881"/>
<circle cx="607.5" cy="149.5" r="0.5" transform="rotate(-90 607.5 149.5)" fill="#4B4881"/>
<circle cx="604.5" cy="133.5" r="0.5" transform="rotate(-90 604.5 133.5)" fill="#4B4881"/>
<circle cx="579.5" cy="149.5" r="0.5" transform="rotate(-90 579.5 149.5)" fill="#4B4881"/>
<circle cx="563.5" cy="173.5" r="0.5" transform="rotate(-90 563.5 173.5)" fill="#4B4881"/>
<circle cx="598.5" cy="201.5" r="0.5" transform="rotate(-90 598.5 201.5)" fill="#4B4881"/>
<circle cx="566.5" cy="200.5" r="0.5" transform="rotate(-90 566.5 200.5)" fill="#4B4881"/>
</g>
<defs>
<filter id="filter0_f_125_3" x="387" y="20.9999" width="591" height="418" filterUnits="userSpaceOnUse" color-interpolation-filters="sRGB">
<feFlood flood-opacity="0" result="BackgroundImageFix"/>
<feBlend mode="normal" in="SourceGraphic" in2="BackgroundImageFix" result="shape"/>
<feGaussianBlur stdDeviation="75" result="effect1_foregroundBlur_125_3"/>
</filter>
<filter id="filter1_b_125_3" x="37" y="49" width="1292" height="581" filterUnits="userSpaceOnUse" color-interpolation-filters="sRGB">
<feFlood flood-opacity="0" result="BackgroundImageFix"/>
<feGaussianBlur in="BackgroundImageFix" stdDeviation="100"/>
<feComposite in2="SourceAlpha" operator="in" result="effect1_backgroundBlur_125_3"/>
<feBlend mode="normal" in="SourceGraphic" in2="effect1_backgroundBlur_125_3" result="shape"/>
</filter>
<radialGradient id="paint0_radial_125_3" cx="0" cy="0" r="1" gradientUnits="userSpaceOnUse" gradientTransform="translate(683 339.5) rotate(90) scale(90.5 446)">
<stop stop-color="#24274B"/>
<stop offset="1" stop-color="#24274B" stop-opacity="0"/>
</radialGradient>
<radialGradient id="paint1_radial_125_3" cx="0" cy="0" r="1" gradientUnits="userSpaceOnUse" gradientTransform="translate(683 339.5) rotate(90) scale(90.5 446)">
<stop/>
<stop offset="1" stop-opacity="0"/>
</radialGradient>
<radialGradient id="paint2_radial_125_3" cx="0" cy="0" r="1" gradientUnits="userSpaceOnUse" gradientTransform="translate(683 275.195) rotate(90) scale(149.877 437.6)">
<stop stop-color="#4B4881"/>
<stop offset="1" stop-opacity="0"/>
</radialGradient>
<linearGradient id="paint3_linear_125_3" x1="668" y1="284.5" x2="668.073" y2="676.5" gradientUnits="userSpaceOnUse">
<stop stop-color="#4B4881"/>
<stop offset="0.145833" stop-color="#4B4881" stop-opacity="0"/>
</linearGradient>
<clipPath id="clip0_125_3">
<path d="M0 0H1366V403H0V0Z" fill="white"/>
</clipPath>
</defs>
</svg>
