<svg width="105" height="96" viewBox="0 0 105 96" fill="none" xmlns="http://www.w3.org/2000/svg">
<path d="M60.5814 17.962H50.9571V0H60.5814C65.7752 0 70 4.028 70 8.98C70 13.932 65.7752 17.962 60.5814 17.962ZM54.0429 15.02H60.5814C64.074 15.02 66.9143 12.31 66.9143 8.982C66.9143 5.654 64.0719 2.944 60.5814 2.944H54.0429V15.02ZM54.0429 17.962H44.4207C39.2268 17.962 35.0021 13.934 35.0021 8.982C35.0021 4.03 39.2268 0 44.4207 0H54.045V17.962H54.0429ZM44.4207 2.942C40.9281 2.942 38.0878 5.652 38.0878 8.98C38.0878 12.308 40.9281 15.02 44.4207 15.02H50.9592V2.942H44.4207ZM54.0429 32.98H44.4207C39.2268 32.98 35.0021 28.952 35.0021 24C35.0021 19.048 39.2268 15.02 44.4207 15.02H54.045V32.98H54.0429ZM44.4207 17.962C40.9281 17.962 38.0878 20.672 38.0878 24C38.0878 27.328 40.9302 30.038 44.4207 30.038H50.9592V17.962H44.4207ZM44.4711 48C39.2499 48 35 43.972 35 39.02C35 34.068 39.2248 30.04 44.4186 30.04H54.0429V38.922C54.0429 43.928 49.7489 48 44.4711 48ZM44.4207 32.98C42.7418 32.9821 41.1323 33.6189 39.9451 34.7508C38.758 35.8827 38.09 37.4173 38.0878 39.018C38.0878 42.348 40.9512 45.056 44.4732 45.056C48.0497 45.056 50.9613 42.304 50.9613 38.92V32.98H44.4207ZM60.5814 32.98H60.3758C55.1819 32.98 50.9571 28.952 50.9571 24C50.9571 19.048 55.1819 15.02 60.3758 15.02H60.5814C65.7752 15.02 70 19.048 70 24C70 28.952 65.7752 32.98 60.5814 32.98ZM60.3779 17.962C56.8852 17.962 54.045 20.672 54.045 24C54.045 27.328 56.8873 30.038 60.3779 30.038H60.5835C64.0761 30.038 66.9164 27.328 66.9164 24C66.9164 20.672 64.0719 17.962 60.5814 17.962H60.3779Z" fill="white"/>
<path d="M30.7225 65.02V66.18H24.5625V71.4H29.7625V72.56H24.5625V79H23.1625V65.02H30.7225ZM33.7258 66.02C33.4458 66.02 33.2058 65.92 33.0058 65.72C32.8058 65.52 32.7058 65.2733 32.7058 64.98C32.7058 64.6867 32.8058 64.4467 33.0058 64.26C33.2058 64.06 33.4458 63.96 33.7258 63.96C34.0058 63.96 34.2458 64.06 34.4458 64.26C34.6458 64.4467 34.7458 64.6867 34.7458 64.98C34.7458 65.2733 34.6458 65.52 34.4458 65.72C34.2458 65.92 34.0058 66.02 33.7258 66.02ZM34.4258 68.08V79H33.0258V68.08H34.4258ZM42.1761 67.92C43.2028 67.92 44.0961 68.16 44.8561 68.64C45.6161 69.12 46.1628 69.7267 46.4961 70.46V68.08H47.8961V79.28C47.8961 80.28 47.6761 81.1667 47.2361 81.94C46.8094 82.7133 46.2094 83.3067 45.4361 83.72C44.6628 84.1467 43.7828 84.36 42.7961 84.36C41.3961 84.36 40.2294 84.0267 39.2961 83.36C38.3761 82.6933 37.8028 81.7867 37.5761 80.64H38.9561C39.1961 81.4 39.6494 82.0067 40.3161 82.46C40.9961 82.9133 41.8228 83.14 42.7961 83.14C43.5028 83.14 44.1361 82.9867 44.6961 82.68C45.2561 82.3867 45.6961 81.9467 46.0161 81.36C46.3361 80.7733 46.4961 80.08 46.4961 79.28V76.58C46.1494 77.3267 45.5961 77.9467 44.8361 78.44C44.0894 78.92 43.2028 79.16 42.1761 79.16C41.1761 79.16 40.2761 78.9267 39.4761 78.46C38.6894 77.9933 38.0694 77.3333 37.6161 76.48C37.1761 75.6267 36.9561 74.64 36.9561 73.52C36.9561 72.4 37.1761 71.42 37.6161 70.58C38.0694 69.7267 38.6894 69.0733 39.4761 68.62C40.2761 68.1533 41.1761 67.92 42.1761 67.92ZM46.4961 73.54C46.4961 72.66 46.3161 71.8867 45.9561 71.22C45.5961 70.5533 45.1028 70.04 44.4761 69.68C43.8628 69.32 43.1828 69.14 42.4361 69.14C41.6628 69.14 40.9694 69.3133 40.3561 69.66C39.7428 70.0067 39.2561 70.5133 38.8961 71.18C38.5494 71.8333 38.3761 72.6133 38.3761 73.52C38.3761 74.4133 38.5494 75.2 38.8961 75.88C39.2561 76.5467 39.7428 77.06 40.3561 77.42C40.9694 77.7667 41.6628 77.94 42.4361 77.94C43.1828 77.94 43.8628 77.76 44.4761 77.4C45.1028 77.04 45.5961 76.5267 45.9561 75.86C46.3161 75.1933 46.4961 74.42 46.4961 73.54ZM64.0922 67.88C65.3722 67.88 66.4122 68.2867 67.2122 69.1C68.0255 69.9 68.4322 71.0667 68.4322 72.6V79H67.0522V72.76C67.0522 71.5733 66.7655 70.6667 66.1922 70.04C65.6189 69.4133 64.8389 69.1 63.8522 69.1C62.8255 69.1 62.0055 69.44 61.3922 70.12C60.7789 70.8 60.4722 71.7867 60.4722 73.08V79H59.0922V72.76C59.0922 71.5733 58.8055 70.6667 58.2322 70.04C57.6589 69.4133 56.8722 69.1 55.8722 69.1C54.8455 69.1 54.0255 69.44 53.4122 70.12C52.7989 70.8 52.4922 71.7867 52.4922 73.08V79H51.0922V68.08H52.4922V69.96C52.8389 69.28 53.3322 68.7667 53.9722 68.42C54.6122 68.06 55.3255 67.88 56.1122 67.88C57.0589 67.88 57.8855 68.1067 58.5922 68.56C59.3122 69.0133 59.8322 69.68 60.1522 70.56C60.4455 69.6933 60.9455 69.0333 61.6522 68.58C62.3722 68.1133 63.1855 67.88 64.0922 67.88ZM70.9014 73.52C70.9014 72.4 71.1214 71.42 71.5614 70.58C72.0147 69.7267 72.6347 69.0733 73.4214 68.62C74.2214 68.1533 75.1214 67.92 76.1214 67.92C77.1614 67.92 78.0547 68.16 78.8014 68.64C79.5614 69.12 80.1081 69.7333 80.4414 70.48V68.08H81.8414V79H80.4414V76.58C80.0947 77.3267 79.5414 77.9467 78.7814 78.44C78.0347 78.92 77.1414 79.16 76.1014 79.16C75.1147 79.16 74.2214 78.9267 73.4214 78.46C72.6347 77.9933 72.0147 77.3333 71.5614 76.48C71.1214 75.6267 70.9014 74.64 70.9014 73.52ZM80.4414 73.54C80.4414 72.66 80.2614 71.8867 79.9014 71.22C79.5414 70.5533 79.0481 70.04 78.4214 69.68C77.8081 69.32 77.1281 69.14 76.3814 69.14C75.6081 69.14 74.9147 69.3133 74.3014 69.66C73.6881 70.0067 73.2014 70.5133 72.8414 71.18C72.4947 71.8333 72.3214 72.6133 72.3214 73.52C72.3214 74.4133 72.4947 75.2 72.8414 75.88C73.2014 76.5467 73.6881 77.06 74.3014 77.42C74.9147 77.7667 75.6081 77.94 76.3814 77.94C77.1281 77.94 77.8081 77.76 78.4214 77.4C79.0481 77.04 79.5414 76.5267 79.9014 75.86C80.2614 75.1933 80.4414 74.42 80.4414 73.54Z" fill="white"/>
</svg>
