<svg width="105" height="96" viewBox="0 0 105 96" fill="none" xmlns="http://www.w3.org/2000/svg">
<path fill-rule="evenodd" clip-rule="evenodd" d="M52.5 15.975H70V0H35.3226V0.15L52.5 15.975Z" fill="white"/>
<path fill-rule="evenodd" clip-rule="evenodd" d="M52.5 15.975H35V31.95H69.6774V31.8L52.5 15.975Z" fill="white"/>
<path fill-rule="evenodd" clip-rule="evenodd" d="M35 31.875H52.3387V48L35 31.875Z" fill="white"/>
<path d="M26.2889 65.02V66.18H20.1289V71.4H25.3289V72.56H20.1289V79H18.7289V65.02H26.2889ZM29.9922 70.02C30.2989 69.34 30.7655 68.8133 31.3922 68.44C32.0322 68.0667 32.8122 67.88 33.7322 67.88V69.34H33.3522C32.3389 69.34 31.5255 69.6133 30.9122 70.16C30.2989 70.7067 29.9922 71.62 29.9922 72.9V79H28.5922V68.08H29.9922V70.02ZM35.1983 73.52C35.1983 72.4 35.4183 71.42 35.8583 70.58C36.3116 69.7267 36.9316 69.0733 37.7183 68.62C38.5183 68.1533 39.4183 67.92 40.4183 67.92C41.4583 67.92 42.3516 68.16 43.0983 68.64C43.8583 69.12 44.4049 69.7333 44.7383 70.48V68.08H46.1383V79H44.7383V76.58C44.3916 77.3267 43.8383 77.9467 43.0783 78.44C42.3316 78.92 41.4383 79.16 40.3983 79.16C39.4116 79.16 38.5183 78.9267 37.7183 78.46C36.9316 77.9933 36.3116 77.3333 35.8583 76.48C35.4183 75.6267 35.1983 74.64 35.1983 73.52ZM44.7383 73.54C44.7383 72.66 44.5583 71.8867 44.1983 71.22C43.8383 70.5533 43.3449 70.04 42.7183 69.68C42.1049 69.32 41.4249 69.14 40.6783 69.14C39.9049 69.14 39.2116 69.3133 38.5983 69.66C37.9849 70.0067 37.4983 70.5133 37.1383 71.18C36.7916 71.8333 36.6183 72.6133 36.6183 73.52C36.6183 74.4133 36.7916 75.2 37.1383 75.88C37.4983 76.5467 37.9849 77.06 38.5983 77.42C39.2116 77.7667 39.9049 77.94 40.6783 77.94C41.4249 77.94 42.1049 77.76 42.7183 77.4C43.3449 77.04 43.8383 76.5267 44.1983 75.86C44.5583 75.1933 44.7383 74.42 44.7383 73.54ZM62.3344 67.88C63.6144 67.88 64.6544 68.2867 65.4544 69.1C66.2677 69.9 66.6744 71.0667 66.6744 72.6V79H65.2944V72.76C65.2944 71.5733 65.0077 70.6667 64.4344 70.04C63.861 69.4133 63.081 69.1 62.0944 69.1C61.0677 69.1 60.2477 69.44 59.6344 70.12C59.021 70.8 58.7144 71.7867 58.7144 73.08V79H57.3344V72.76C57.3344 71.5733 57.0477 70.6667 56.4744 70.04C55.901 69.4133 55.1144 69.1 54.1144 69.1C53.0877 69.1 52.2677 69.44 51.6544 70.12C51.041 70.8 50.7344 71.7867 50.7344 73.08V79H49.3344V68.08H50.7344V69.96C51.081 69.28 51.5744 68.7667 52.2144 68.42C52.8544 68.06 53.5677 67.88 54.3544 67.88C55.301 67.88 56.1277 68.1067 56.8344 68.56C57.5544 69.0133 58.0744 69.68 58.3944 70.56C58.6877 69.6933 59.1877 69.0333 59.8944 68.58C60.6144 68.1133 61.4277 67.88 62.3344 67.88ZM79.6636 72.98C79.6636 73.46 79.6503 73.8267 79.6236 74.08H70.5636C70.6036 74.9067 70.8036 75.6133 71.1636 76.2C71.5236 76.7867 71.9969 77.2333 72.5836 77.54C73.1703 77.8333 73.8103 77.98 74.5036 77.98C75.4103 77.98 76.1703 77.76 76.7836 77.32C77.4103 76.88 77.8236 76.2867 78.0236 75.54H79.5036C79.2369 76.6067 78.6636 77.48 77.7836 78.16C76.9169 78.8267 75.8236 79.16 74.5036 79.16C73.4769 79.16 72.5569 78.9333 71.7436 78.48C70.9303 78.0133 70.2903 77.36 69.8236 76.52C69.3703 75.6667 69.1436 74.6733 69.1436 73.54C69.1436 72.4067 69.3703 71.4133 69.8236 70.56C70.2769 69.7067 70.9103 69.0533 71.7236 68.6C72.5369 68.1467 73.4636 67.92 74.5036 67.92C75.5436 67.92 76.4503 68.1467 77.2236 68.6C78.0103 69.0533 78.6103 69.6667 79.0236 70.44C79.4503 71.2 79.6636 72.0467 79.6636 72.98ZM78.2436 72.94C78.2569 72.1267 78.0903 71.4333 77.7436 70.86C77.4103 70.2867 76.9503 69.8533 76.3636 69.56C75.7769 69.2667 75.1369 69.12 74.4436 69.12C73.4036 69.12 72.5169 69.4533 71.7836 70.12C71.0503 70.7867 70.6436 71.7267 70.5636 72.94H78.2436ZM83.625 70.02C83.9317 69.34 84.3983 68.8133 85.025 68.44C85.665 68.0667 86.445 67.88 87.365 67.88V69.34H86.985C85.9717 69.34 85.1583 69.6133 84.545 70.16C83.9317 70.7067 83.625 71.62 83.625 72.9V79H82.225V68.08H83.625V70.02Z" fill="white"/>
</svg>
