<svg width="1366" height="35" viewBox="0 0 1366 35" fill="none" xmlns="http://www.w3.org/2000/svg">
<rect width="1366" height="34" rx="12" fill="#040618" fill-opacity="0.21"/>
<path d="M660.84 24.14C659.92 24.14 659.107 23.98 658.4 23.66C657.707 23.34 657.16 22.8933 656.76 22.32C656.36 21.7467 656.147 21.1067 656.12 20.4H657.6C657.667 21.08 657.967 21.68 658.5 22.2C659.033 22.7067 659.813 22.96 660.84 22.96C661.787 22.96 662.533 22.72 663.08 22.24C663.64 21.7467 663.92 21.1267 663.92 20.38C663.92 19.78 663.767 19.3 663.46 18.94C663.153 18.5667 662.773 18.2933 662.32 18.12C661.867 17.9333 661.24 17.7333 660.44 17.52C659.507 17.2667 658.767 17.02 658.22 16.78C657.673 16.54 657.207 16.1667 656.82 15.66C656.433 15.1533 656.24 14.4667 656.24 13.6C656.24 12.88 656.427 12.24 656.8 11.68C657.173 11.1067 657.7 10.66 658.38 10.34C659.06 10.02 659.84 9.86 660.72 9.86C662.013 9.86 663.053 10.18 663.84 10.82C664.64 11.4467 665.1 12.26 665.22 13.26H663.7C663.607 12.6867 663.293 12.18 662.76 11.74C662.227 11.2867 661.507 11.06 660.6 11.06C659.76 11.06 659.06 11.2867 658.5 11.74C657.94 12.18 657.66 12.7867 657.66 13.56C657.66 14.1467 657.813 14.62 658.12 14.98C658.427 15.34 658.807 15.6133 659.26 15.8C659.727 15.9867 660.353 16.1867 661.14 16.4C662.047 16.6533 662.78 16.9067 663.34 17.16C663.9 17.4 664.373 17.7733 664.76 18.28C665.147 18.7867 665.34 19.4667 665.34 20.32C665.34 20.9733 665.167 21.5933 664.82 22.18C664.473 22.7667 663.96 23.24 663.28 23.6C662.6 23.96 661.787 24.14 660.84 24.14ZM675.505 24L669.445 17.54V24H668.045V10.02H669.445V16.56L675.505 10.02H677.285L670.745 17L677.345 24H675.505ZM680.813 10.02V24H679.413V10.02H680.813ZM685.383 22.86H690.403V24H683.983V10.02H685.383V22.86ZM693.801 22.86H698.821V24H692.401V10.02H693.801V22.86ZM705.059 24.14C704.139 24.14 703.325 23.98 702.619 23.66C701.925 23.34 701.379 22.8933 700.979 22.32C700.579 21.7467 700.365 21.1067 700.339 20.4H701.819C701.885 21.08 702.185 21.68 702.719 22.2C703.252 22.7067 704.032 22.96 705.059 22.96C706.005 22.96 706.752 22.72 707.299 22.24C707.859 21.7467 708.139 21.1267 708.139 20.38C708.139 19.78 707.985 19.3 707.679 18.94C707.372 18.5667 706.992 18.2933 706.539 18.12C706.085 17.9333 705.459 17.7333 704.659 17.52C703.725 17.2667 702.985 17.02 702.439 16.78C701.892 16.54 701.425 16.1667 701.039 15.66C700.652 15.1533 700.459 14.4667 700.459 13.6C700.459 12.88 700.645 12.24 701.019 11.68C701.392 11.1067 701.919 10.66 702.599 10.34C703.279 10.02 704.059 9.86 704.939 9.86C706.232 9.86 707.272 10.18 708.059 10.82C708.859 11.4467 709.319 12.26 709.439 13.26H707.919C707.825 12.6867 707.512 12.18 706.979 11.74C706.445 11.2867 705.725 11.06 704.819 11.06C703.979 11.06 703.279 11.2867 702.719 11.74C702.159 12.18 701.879 12.7867 701.879 13.56C701.879 14.1467 702.032 14.62 702.339 14.98C702.645 15.34 703.025 15.6133 703.479 15.8C703.945 15.9867 704.572 16.1867 705.359 16.4C706.265 16.6533 706.999 16.9067 707.559 17.16C708.119 17.4 708.592 17.7733 708.979 18.28C709.365 18.7867 709.559 19.4667 709.559 20.32C709.559 20.9733 709.385 21.5933 709.039 22.18C708.692 22.7667 708.179 23.24 707.499 23.6C706.819 23.96 706.005 24.14 705.059 24.14Z" fill="white"/>
<rect width="1366" height="34" rx="12" stroke="url(#paint0_linear_174_4)"/>
<defs>
<linearGradient id="paint0_linear_174_4" x1="1287.85" y1="-10.3889" x2="1265.25" y2="128.63" gradientUnits="userSpaceOnUse">
<stop stop-color="white"/>
<stop offset="1" stop-color="white" stop-opacity="0"/>
</linearGradient>
</defs>
</svg>
