<svg width="135" height="37" viewBox="0 0 135 37" fill="none" xmlns="http://www.w3.org/2000/svg">
<path d="M132.751 31.0946C131.7 31.146 130.641 31.1066 129.586 31.1066C129.581 31.0478 129.575 30.989 129.57 30.9301C131.174 30.5827 132.779 30.2352 134.554 29.8506C133.168 28.8558 131.915 27.9565 130.681 27.0705C130.319 27.2418 130.336 27.455 130.262 27.6399C130.2 27.7943 130.375 28.0954 129.941 28.0412C129.622 28.0013 129.375 27.8302 129.505 27.5405C129.852 26.7657 130.124 25.9622 130.595 25.2315C130.998 24.6064 131.754 24.2958 132.744 24.1407C134.522 23.8621 134.842 22.9343 133.617 22.0314C133.054 21.6161 132.506 21.1882 131.974 20.7505C131.75 20.5663 131.495 20.4007 131.986 20.1404C133.748 19.2054 133.661 17.8677 133.233 16.5024C132.942 15.5762 132.101 15.0097 130.85 14.9091C129.665 14.8138 128.759 15.238 128.065 15.9663C127.848 16.195 127.905 16.6642 127.201 16.6036C127.177 16.4779 127.144 16.3573 127.135 16.2357C127.123 16.0714 127.12 15.906 127.13 15.7416C127.165 15.1992 126.909 14.8236 126.111 14.8275C125.376 14.8312 124.896 15.1469 124.987 15.6924C125.137 16.5949 124.558 16.7723 123.553 16.665C123.338 16.642 123.111 16.6426 122.896 16.6649C122.1 16.7473 122.005 16.44 122.164 15.9631C122.441 15.135 122.743 14.3123 123.231 13.5383C124.772 11.089 127.243 9.33089 130.45 7.97864C130.489 8.433 130.517 8.7517 130.561 9.26592C131.881 8.16807 133.049 7.19582 134.336 6.12503C132.251 5.71226 130.405 5.34665 128.294 4.92868C128.788 5.44666 129.089 5.76145 129.431 6.12017C123.724 7.42546 119.964 10.2007 117.995 14.3853C117.897 13.6972 117.92 13.0712 117.891 12.4466C117.846 11.4632 118.1 10.461 117.739 9.49869C116.944 7.37887 114.786 6.505 112.099 6.21137C109.51 5.92838 106.717 6.97355 105.479 8.59331C105.271 8.86529 105.267 9.23634 104.713 9.46052C104.713 8.56691 104.675 7.72709 104.726 6.89028C104.759 6.33845 104.526 6.15117 103.767 6.15576C99.4617 6.18173 95.1565 6.17075 90.8515 6.17882C90.75 6.17902 90.6489 6.2549 90.5023 6.31365C91.0889 6.74831 91.8131 7.07416 91.7642 7.76203C92.4781 9.10685 92.3969 10.5445 92.4342 11.9341C92.5498 16.2445 92.4953 20.5576 92.4944 24.8697C92.4943 25.1263 92.3846 25.3828 92.3259 25.6394C91.9272 25.4952 91.7588 25.2811 91.6907 25.0423C91.676 25.1259 91.6632 25.2096 91.6476 25.2932C91.6951 26.6323 91.4673 27.9181 90.5732 29.1135C90.5122 29.1951 90.4612 29.2769 90.4196 29.3585C90.3408 29.1431 90.1656 28.9374 89.8975 28.7502C89.3277 28.3524 88.86 27.8602 89.0158 27.2748C89.3347 26.0759 88.6432 24.6489 90.3591 23.7448C90.4967 23.6723 90.6042 23.4973 90.5525 23.3908C89.8653 21.977 91.1768 20.7584 91.224 19.4189C91.242 18.9088 90.9234 18.387 91.428 17.8934C91.5778 17.7469 91.6985 17.5906 91.8007 17.4285C91.8676 16.9791 91.9542 16.5303 92.071 16.0824C92.2694 14.6803 92.1548 13.3412 90.792 12.2252C90.0995 11.6582 89.3094 11.1902 88.3255 10.9838C87.1919 10.746 87.5566 10.5161 88.0149 9.92118C88.8464 8.84185 90.0954 8.35139 91.5237 7.96163C90.2604 7.78889 88.9949 7.76242 88.1039 6.80203C87.4374 6.08365 85.6588 6.01342 84.9201 6.6727C84.0151 7.48031 82.8901 7.83057 81.5288 8.02513C82.2644 8.54692 83.4222 8.18167 83.7946 8.86258C84.0903 9.40308 84.4869 9.82513 85.0911 10.1766C85.5623 10.4507 85.5383 10.7614 84.9401 10.8958C82.8466 11.3661 81.5155 12.3633 80.8618 13.9377C80.7714 14.1553 80.7822 13.7533 80.6322 13.7133C80.6485 12.7586 80.7577 11.7987 80.6632 10.8502C80.4088 8.29682 78.9308 5.93418 74.0587 6.1579C72.7456 6.21819 71.4235 6.16697 70.1055 6.16699C68.0613 6.16701 68.0624 6.16686 68.4749 7.6955C68.5095 7.82402 68.5238 7.95646 68.5346 8.08769C69.023 14.0132 68.9875 19.9411 68.452 25.8604C68.3211 27.3066 68.6388 28.9396 66.8426 30.2031C68.3274 30.2031 69.8121 30.2031 71.4139 30.2031C70.6621 30.9828 69.8157 31.1375 68.7757 31.1219C65.8334 31.0779 62.8881 31.0735 59.9461 31.1244C58.9221 31.1422 58.2376 30.8526 57.4781 30.172C59.6697 30.172 61.6701 30.1783 63.6703 30.1667C64.0682 30.1644 64.643 30.294 64.6485 29.7686C64.665 28.1796 64.6545 26.5905 64.6545 24.7655C64.169 25.1978 63.9327 25.4259 63.6721 25.6372C62.5627 26.537 60.8092 26.8213 59.1948 26.3706C57.5421 25.9091 56.8853 25.1789 56.8806 23.7147C56.8758 22.2321 56.9505 20.749 56.9172 19.2669C56.9009 18.5428 57.305 18.4476 58.1302 18.5683C59.3314 18.744 60.1786 19.2659 60.8981 19.9602C61.0674 20.1236 61.1379 20.3903 61.5815 20.3013C62.0562 20.206 62.0288 19.9564 62.026 19.6892C62.0124 18.404 62.0039 17.1189 61.9896 15.8338C61.9867 15.5751 62.057 15.276 61.6423 15.1499C61.1281 14.9936 60.953 15.3354 60.726 15.5578C60.057 16.2131 59.1282 16.5606 58.1317 16.8432C57.1599 17.1188 56.7044 16.9983 56.7829 16.1042C56.91 14.6587 56.8943 13.2063 56.9533 11.7572C57.0077 10.4223 57.8903 9.6342 59.6346 9.33737C61.4229 9.03305 62.9732 9.52955 63.7189 10.6815C63.8735 10.9203 63.8818 11.1817 64.3827 11.131C64.9275 11.0759 64.8093 10.7752 64.8118 10.5345C64.824 9.34829 64.7675 8.16026 64.8378 6.97629C64.8769 6.31892 64.5903 6.14977 63.7356 6.15356C57.8927 6.17951 52.0492 6.19128 46.2067 6.14565C45.1038 6.13703 44.9662 6.45622 45.0874 7.12493C45.2438 7.9881 45.5111 8.86266 44.9571 9.80072C44.6294 8.80534 44.4737 7.88965 44.5755 6.96846C44.6492 6.30231 44.3121 6.11145 43.4656 6.14889C43.0336 6.168 42.2726 6.40776 42.2675 5.74272C42.2632 5.18187 41.8143 4.78304 41.3746 4.23223C42.3801 4.23223 43.2001 4.23227 44.0201 4.23223C48.2377 4.23194 52.4553 4.23154 56.6729 4.23139C57.6633 4.23136 58.281 3.88908 58.2901 3.12266C58.2992 2.34773 57.6754 2.01118 56.6843 2.00945C56.4646 2.00906 56.245 2.00828 56.0253 2.00828C39.9018 2.00824 23.7783 2.01584 7.6549 1.99396C6.35957 1.99221 5.25474 2.46319 4.01617 2.591C3.22 2.67316 2.8202 3.22532 2.64779 3.80095C2.57843 4.03259 2.58369 4.30365 2.20088 4.32768C1.09022 4.39744 0.670091 5.1135 0 5.59659C0 5.92621 0 6.25583 0 6.58545C0.693008 8.29804 0.692992 8.29819 3.12864 8.45901C3.25983 8.46766 3.39214 8.46928 3.5217 8.48801C5.59828 8.78833 6.65593 10.3993 5.58365 11.7133C4.55928 12.9687 3.93507 14.3263 3.51424 15.7489C3.32945 16.3735 3.0123 16.9015 2.25801 17.3036C1.35639 17.7843 1.37486 18.2294 2.26289 18.694C2.86388 19.0084 3.18201 19.4116 3.24112 19.9169C3.48029 21.9616 4.42096 23.8221 5.79405 25.5757C6.04517 25.8964 6.22255 26.2231 6.04448 26.6056C5.70952 27.3252 4.07499 28.2151 2.99409 28.2585C0.749575 28.3487 0.513857 28.4953 0 30.1204C0 30.4501 0 30.7797 0 31.1093C0.846119 32.2506 2.76011 32.6825 3.39138 33.9798C3.45725 34.1152 3.845 34.1536 4.06751 34.2565C4.96451 34.671 6.63422 34.2066 6.72613 35.5597C6.72706 35.5735 7.05107 35.6147 7.19104 35.5758C7.61644 35.4577 7.84507 35.6589 7.82729 35.8858C7.75566 36.8 8.71163 36.5737 9.24458 36.5265C10.0872 36.4518 9.75425 35.8628 9.71962 35.4842C9.61514 34.3425 11.0496 33.1156 12.5795 33.1142C17.8944 33.1093 23.2095 33.1239 28.5242 33.0994C29.2864 33.0959 29.8581 33.3145 30.4603 33.5976C32.4202 34.5188 34.5001 35.1506 36.8786 35.0874C38.9256 35.0329 40.7051 34.4132 42.3903 33.6335C43.2532 33.2342 44.1142 33.0911 45.1135 33.1C48.6709 33.1317 52.2295 33.1361 55.7868 33.0989C56.9653 33.0866 57.9691 33.2859 59.0016 33.7329C61.8712 34.9754 64.9963 35.536 67.9863 34.2062C70.1646 33.2374 72.3456 33.017 74.7347 33.1038C76.0493 33.1516 77.371 33.1397 78.6869 33.1024C79.5141 33.0789 80.1807 33.2378 80.8611 33.6113C83.6191 35.1255 86.6948 35.6698 89.7068 34.294C92.2429 33.1356 94.8539 33.0219 97.6215 33.1074C98.63 33.1385 99.6518 33.1801 100.65 33.0967C102.196 32.9675 103.372 33.3684 104.578 34.0884C110.405 37.5675 115.56 38.0268 121.429 34.935C124.427 33.3556 127.33 32.9567 130.684 33.1075C131.428 33.1409 132.181 33.0786 132.923 33.1213C133.774 33.1702 134.47 33.0062 135 32.4937C135 32.23 135 31.9663 135 31.7026C134.377 31.2368 133.647 31.0509 132.751 31.0946ZM7.3485 4.66375C7.51798 4.0208 8.12558 4.24182 8.57255 4.24117C17.0393 4.22859 25.5063 4.2487 33.9728 4.20969C34.9755 4.20508 35.2367 4.58132 35.4811 5.22299C35.4487 5.26727 35.3885 5.38488 35.2878 5.47791C35.1504 5.60501 34.9842 5.71492 34.8269 5.82958C33.8518 6.54055 33.0264 7.5444 31.859 7.88151C30.6044 8.24379 29.6019 7.079 28.3992 6.70021C22.5188 4.84812 16.889 5.10789 11.5226 7.70763C10.6946 8.10878 10.2225 8.11525 9.60067 7.55727C9.01248 7.02947 8.36656 6.51396 7.63337 6.10736C6.80687 5.64902 7.20883 5.19368 7.3485 4.66375ZM30.5445 14.5128C24.1872 13.6495 17.8759 13.6893 11.5378 14.3541C12.3447 12.332 16.3848 10.2842 19.7466 10.1522C24.684 9.9585 28.9614 11.6555 30.5445 14.5128ZM5.17953 7.58849C4.64622 7.14785 4.21706 6.90506 3.31947 7.24377C2.18999 7.67 1.03729 7.01838 1.06468 5.98954C1.14191 5.4778 1.57181 5.06295 2.43871 5.00626C3.12695 4.96126 3.59275 4.87721 3.48871 4.20941C3.4124 3.71965 3.78597 3.34116 4.4456 3.15331C5.11416 2.9629 5.67504 3.13986 6.12125 3.47341C6.58932 3.82329 6.77676 4.30978 6.37029 4.73408C5.58545 5.55331 6.08806 6.0609 6.94973 6.58064C7.59595 6.97042 8.15979 7.43723 8.75838 7.87125C9.76373 8.60022 9.63611 9.12987 8.39707 9.67019C7.91381 9.88091 7.76591 9.60101 7.54825 9.43672C6.74517 8.83058 5.94509 8.22102 5.17953 7.58849ZM4.61777 17.7735C12.6113 15.3983 20.8723 15.2453 29.2556 16.118C31.9962 16.337 34.6183 16.895 37.4044 17.6352C36.3351 18.0959 35.3448 18.1718 34.4175 18.3783C33.5649 18.5682 32.9267 18.6967 32.563 17.7138C32.1963 16.723 30.6654 16.684 29.4815 16.4859C28.9315 16.3939 28.3384 16.4743 27.8024 16.2887C23.1954 16.2803 18.5854 16.1356 13.9857 16.4598C12.7149 16.5494 11.4687 16.7086 10.331 17.1779C10.2544 17.2095 10.1553 17.2393 10.1178 17.2908C8.58348 19.3998 6.46762 17.7385 4.61777 17.7735ZM38.9193 17.3679C38.4757 17.3313 38.3103 17.0709 38.2388 16.6544C37.874 14.5312 36.8162 12.6033 35.122 10.8863C34.7327 10.4918 34.6805 10.2601 35.1796 9.90871C36.0423 9.30126 36.8316 8.63555 37.6634 8.00296C37.8992 7.82368 38.1033 7.50502 38.4954 7.60619C38.9313 7.71864 38.9063 8.09235 38.908 8.36684C38.9261 11.3573 38.9193 14.3479 38.9193 17.3679ZM38.9225 18.1113C39.3904 18.1094 39.2448 18.4471 39.2385 18.6449C39.1312 22.0479 38.9097 25.444 38.124 28.8872C37.0705 28.1203 36.121 27.413 35.1451 26.7269C34.769 26.4625 34.9988 26.2678 35.2007 26.0614C37.3405 23.874 38.2746 21.3837 38.4959 18.7127C38.5166 18.4629 38.4147 18.1133 38.9225 18.1113ZM33.9928 30.2389C34.2986 30.4613 34.698 30.6111 34.9262 30.9361C32.9047 30.972 30.7672 31.6711 29.3846 29.996C31.8646 28.6821 31.8583 28.6869 33.9928 30.2389ZM7.01198 30.0531C6.22737 30.6109 5.34433 31.031 6.22457 32.0748C6.81261 32.7722 6.04564 33.5358 4.93688 33.6261C3.88049 33.7121 3.28793 33.2573 3.41031 32.5233C3.5391 31.7508 2.87184 31.8766 2.32435 31.7838C1.39796 31.6267 0.783693 31.2081 0.918104 30.4757C1.03258 29.8519 1.56293 29.404 2.48755 29.354C4.92062 30.2641 5.59727 28.5067 6.80217 27.6921C7.64336 27.1234 8.05456 26.9578 8.89275 27.6777C9.47803 28.1804 9.35292 28.3864 8.80439 28.7455C8.17735 29.1559 7.61694 29.6229 7.01198 30.0531ZM9.11525 33.9725C8.91148 34.0439 8.50664 33.7395 8.53631 33.5586C8.60091 33.1649 9.00369 32.8484 9.48033 32.7311C9.8444 32.6415 9.7668 33.0541 9.97894 33.2067C9.91398 33.5992 9.51285 33.8331 9.11525 33.9725ZM11.1066 32.5385C10.8902 32.6815 10.7101 32.7665 10.5145 32.4907C9.92592 31.6609 11.1757 31.5757 11.4971 30.9378C12.2736 31.7504 11.6988 32.147 11.1066 32.5385ZM7.06922 31.056C7.90283 30.1996 8.98116 29.5983 9.89811 28.884C10.1928 28.6545 10.4146 28.7657 10.6842 28.915C11.1041 29.1476 11.551 29.3527 12.0742 29.613C10.1718 31.2179 10.1718 31.2179 7.06922 31.056ZM10.2923 20.3743C9.6538 18.1926 10.1868 17.613 13.1482 17.26C16.0605 16.9129 18.9964 16.8865 21.9346 16.8905C24.6975 16.8781 27.4593 16.8729 30.1873 17.2815C31.4423 17.4694 31.997 17.9411 31.938 18.99C31.7168 22.919 27.4948 26.3582 22.2997 26.7279C16.3771 27.1493 11.5234 24.581 10.2923 20.3743ZM25.4804 28.3012C25.1071 28.6122 24.7087 28.8622 23.9932 28.6171C24.4425 28.2157 24.9885 28.3242 25.4804 28.3012ZM24.6919 27.0209C25.1347 26.9584 25.047 27.3248 25.2477 27.3856C25.3228 27.7576 25.0056 27.7271 24.7679 27.7684C24.339 27.8428 24.2568 27.6443 24.2237 27.3918C24.1889 27.1271 24.4435 27.056 24.6919 27.0209ZM23.6116 29.4156C23.6155 29.4392 23.2312 29.5611 23.0659 29.5284C22.4065 29.3982 22.5698 28.984 22.4764 28.5411C23.1346 28.737 23.536 28.9669 23.6116 29.4156ZM22.155 27.7556C22.1247 27.2942 22.5855 27.363 22.9866 27.3277C23.3638 27.2656 23.5434 27.4432 23.5109 27.7015C23.4607 28.1012 22.9614 28.0249 22.6225 28.0865C22.2947 28.1461 22.1701 27.9858 22.155 27.7556ZM20.7875 28.5768C21.6305 28.5737 21.7396 28.9949 21.772 29.3922C21.8187 29.9644 21.1509 29.6995 20.808 29.7079C20.4648 29.7163 19.8685 29.9118 19.8541 29.387C20.0552 29.0137 19.9815 28.5797 20.7875 28.5768ZM20.3319 27.7961C20.3245 27.5281 20.4733 27.3727 20.8501 27.3718C21.1799 27.3595 21.4527 27.4064 21.4606 27.714C21.4673 27.9747 21.3366 28.141 20.9464 28.1371C20.6273 28.1339 20.3406 28.1121 20.3319 27.7961ZM19.1296 28.0231C18.8259 27.92 18.2357 28.1382 18.2484 27.6616C18.255 27.4118 18.4717 27.2314 18.8656 27.3105C19.1993 27.3775 19.7217 27.2218 19.7294 27.696C19.708 27.9974 19.4786 28.1415 19.1296 28.0231ZM19.1802 28.5048C19.0751 29.2325 19.0425 29.8434 17.788 29.2566C18.0924 28.8821 18.5687 28.7201 19.1802 28.5048ZM17.6458 27.3614C17.6375 27.6459 17.4154 27.7632 17.0504 27.7456C16.8266 27.7305 16.572 27.6955 16.6056 27.4891C16.6426 27.2615 16.8044 27.0378 17.1546 27.014C17.443 26.9944 17.6527 27.1202 17.6458 27.3614ZM14.1372 30.4483C14.0781 30.5296 13.9645 30.5917 13.8652 30.6528C13.5347 30.856 13.1994 31.0547 12.8536 31.2626C12.426 30.5264 12.7909 29.8087 13.6501 29.5534C13.8397 29.4971 13.983 29.4761 14.0792 29.6165C14.2624 29.884 14.3418 30.1668 14.1372 30.4483ZM15.365 29.8886C14.5724 29.0784 14.8781 28.6625 15.6763 28.298C16.0708 28.1179 16.3006 28.1193 16.482 28.4364C16.9909 29.3259 15.6255 29.2339 15.365 29.8886ZM24.8272 30.945C23.7074 31.7127 22.4723 32.3052 20.5515 32.3089C18.9122 32.3288 17.516 31.496 16.1896 30.5602C16.0321 30.4491 15.8388 30.2935 16.0802 30.1555C16.3698 29.9901 16.5987 29.7009 17.0931 29.8405C19.4212 30.498 21.7933 30.5338 24.1763 30.0447C24.703 29.9366 24.9083 30.1788 25.1379 30.3996C25.4299 30.6805 25.0237 30.8103 24.8272 30.945ZM25.1393 29.3643C26.2846 28.6153 26.9096 29.1277 27.4941 29.7626C26.2693 30.373 26.2693 30.373 25.1393 29.3643ZM29.0896 31.3667C27.9794 32.0429 27.8061 31.05 27.1617 30.838C27.9935 30.2079 28.667 30.4073 29.2948 30.934C29.5733 31.1677 29.2941 31.2422 29.0896 31.3667ZM29.3362 32.1353C30.2752 31.2793 30.8893 31.8641 31.5442 32.2718C30.6558 32.98 30.6558 32.98 29.3362 32.1353ZM31.6888 33.3254C32.3612 32.4742 33.1043 32.8023 33.8661 33.192C33.1371 34.1831 32.4318 33.6621 31.6888 33.3254ZM34.1906 34.1888C34.5929 33.3584 35.3266 33.4101 36.1496 33.5381C36.0233 34.7227 35.0892 34.2935 34.1906 34.1888ZM38.7013 33.892C38.4573 34.6187 37.5593 34.2227 36.89 34.6345C36.9222 33.6823 37.4437 33.4416 38.251 33.4243C38.7252 33.4141 38.7674 33.6954 38.7013 33.892ZM39.6467 33.8187C39.5903 33.81 39.5106 33.5366 39.5813 33.4717C39.9671 33.1176 40.4506 33.3037 41.0838 33.3345C40.5858 33.6909 40.1936 33.903 39.6467 33.8187ZM39.8528 32.0233C38.898 32.0792 38.58 32.9777 37.5653 32.8587C37.354 32.834 37.1295 32.8727 36.6989 32.8914C35.8813 33.0024 35.67 32.5998 36.1791 32.0647C36.814 31.3976 36.4089 31.0433 35.7717 30.6155C34.859 30.0028 34.0197 29.3289 33.1187 28.7058C32.1308 28.0226 33.3475 27.8762 33.6229 27.5153C33.9454 27.0927 34.3233 27.0244 34.8137 27.4544C35.4096 27.9769 36.0945 28.4423 36.7408 28.9325C36.8331 29.0026 37 29.0702 37.0053 29.144C37.1156 30.6685 38.6529 30.0523 39.7081 30.1772C40.3151 30.249 41.236 29.8598 41.373 30.7085C41.5066 31.5365 40.8077 31.9674 39.8528 32.0233ZM41.3373 5.9634C41.1734 6.2962 40.7356 6.15418 40.4169 6.16085C39.4969 6.18009 38.5757 6.16766 37.2712 6.16766C37.9968 6.6728 37.8192 6.97905 37.3447 7.31391C36.4506 7.9449 35.5409 8.57703 34.7711 9.28977C33.9625 10.0384 33.6159 9.43339 33.0492 9.11614C32.2456 8.66626 32.5559 8.36529 33.1212 7.97987C34.0299 7.36041 34.8638 6.67868 35.7822 6.06803C36.4382 5.63186 36.778 5.25325 36.1706 4.60724C35.7441 4.1537 35.7477 3.61341 36.3543 3.16976C36.849 2.80795 37.4454 2.7346 38.0581 2.89248C38.6448 3.04369 39.0328 3.41035 38.9655 3.87363C38.8755 4.49261 39.1842 4.66856 39.9628 4.68006C40.3121 4.68523 40.6982 4.88732 40.9902 5.06979C41.3414 5.28924 41.5042 5.62447 41.3373 5.9634ZM44.2966 30.3171C43.8535 30.5129 43.4206 30.7236 42.9628 30.8976C42.7654 30.9726 42.5238 31.2087 42.3005 30.9684C42.1912 30.8509 42.2216 30.6537 42.2123 30.4919C42.1975 30.2347 42.4229 30.1643 42.7149 30.1543C43.2376 30.1364 43.7601 30.1166 44.2827 30.0976C43.9436 28.7228 43.6301 27.3476 44.0624 25.8004C44.6585 27.094 45.2131 28.2235 45.6969 29.3697C46.1284 30.3921 44.8451 30.0662 44.2966 30.3171ZM47.0452 30.9209C46.8169 30.9421 46.6025 30.9335 46.6236 30.7017C46.6434 30.4839 46.809 30.3556 47.1107 30.3381C47.3534 30.324 47.5436 30.3801 47.5525 30.5812C47.5634 30.8304 47.3133 30.8899 47.0452 30.9209ZM48.9298 30.5324C48.692 30.5868 48.4943 30.5236 48.4948 30.3245C48.4957 30.0225 48.8497 30.0067 49.1355 29.961C49.3907 29.9203 49.5513 30.0078 49.5643 30.2057C49.5869 30.5508 49.2386 30.5164 48.9298 30.5324ZM51.3075 6.86426C53.2168 9.57444 52.9692 27.47 50.9994 29.2429C50.3991 21.7497 50.2755 14.4354 51.3075 6.86426ZM51.3341 30.2077C51.2733 30.3978 51.0909 30.4758 50.8509 30.4556C50.5924 30.4339 50.475 30.3044 50.5201 30.1129C50.5686 29.9072 50.8014 29.8942 50.9776 29.8678C51.2812 29.8991 51.3982 30.0073 51.3341 30.2077ZM52.8254 30.5592C52.5597 30.537 52.1946 30.5544 52.2193 30.2027C52.2449 29.8378 52.5904 29.9292 52.8782 29.9147C53.0788 29.9673 53.474 29.8244 53.4228 30.1445C53.3877 30.3643 53.1914 30.5897 52.8254 30.5592ZM54.4694 30.9191C54.2503 30.9004 53.998 30.8496 54.1425 30.628C54.2845 30.4103 54.3956 30.1012 54.8498 30.1765C55.0666 30.2125 55.2546 30.3457 55.4653 30.4391C55.1696 30.7379 54.9185 30.9574 54.4694 30.9191ZM56.2518 31.5363C56.072 31.5573 55.7525 31.5175 55.7617 31.322C55.7777 30.9825 56.2028 30.8627 56.5386 30.7744C56.7492 30.7191 57.0104 30.8672 57.1383 31.0681C56.9474 31.3324 56.6321 31.4918 56.2518 31.5363ZM58.9229 32.4797C58.0555 32.9844 57.7792 32.2381 57.202 32.0933C57.7452 31.3781 58.2835 31.581 58.8843 31.9621C59.1901 32.1561 59.2443 32.2926 58.9229 32.4797ZM62.0311 33.6354C61.8324 33.8448 61.5771 33.9262 61.2363 33.8053C60.6512 33.5977 60.0591 33.4012 59.3132 33.1465C60.0487 32.7632 61.8792 32.9549 62.1576 33.3042C62.2917 33.4725 62.1188 33.5429 62.0311 33.6354ZM64.2936 33.8111C64.3198 34.2363 63.9902 34.2705 63.6117 34.2443C63.3212 34.2241 62.852 34.2372 62.8964 33.9851C62.9403 33.7354 63.2724 33.476 63.7339 33.4768C64.0675 33.4774 64.3544 33.5268 64.2936 33.8111ZM66.259 33.6543C66.298 34.0102 65.9544 34.1242 65.5322 34.1688C65.1178 34.2126 65.1673 33.9734 65.1397 33.7874C65.0799 33.3846 65.4066 33.2882 65.8545 33.2622C66.2331 33.2402 66.3068 33.3847 66.259 33.6543ZM67.3477 33.6588C67.3331 33.6594 67.2276 33.3994 67.2936 33.3294C67.5863 33.0187 67.988 33.1404 68.4273 33.1902C68.1566 33.5426 67.7766 33.6423 67.3477 33.6588ZM88.429 13.8702C90.0291 14.8028 90.0314 16.2209 88.429 17.1991C88.429 16.0716 88.429 14.9927 88.429 13.8702ZM84.2433 13.9C84.2433 15.0148 84.2433 16.0197 84.2433 17.1285C82.9717 16.0048 82.9625 15.1123 84.2433 13.9ZM73.5081 30.8333C73.188 31.336 72.5934 30.9329 72.1236 31.0053C72.4537 30.635 72.8652 30.4282 73.3939 30.411C73.4291 30.4098 73.5774 30.7246 73.5081 30.8333ZM73.7991 20.3808C73.2142 20.2258 73.5065 19.7512 73.5041 19.4271C73.4806 16.3344 73.5139 13.2412 73.4733 10.1487C73.463 9.37088 73.7713 9.22453 74.6898 9.53079C75.6433 9.84874 76.1184 10.3606 76.1176 11.1348C76.1165 12.3193 76.1174 13.5038 76.1174 14.9508C76.0149 16.0985 76.2816 17.5144 75.9823 18.9229C75.8962 19.3279 75.7438 19.6918 75.3337 19.97C74.8984 20.2655 74.3674 20.5313 73.7991 20.3808ZM74.7554 30.892C74.3423 30.9469 74.3885 30.6926 74.3776 30.5069C74.3602 30.2115 74.5003 29.9912 74.935 29.943C75.2637 29.9066 75.4378 30.0028 75.4051 30.2474C75.439 30.6192 75.2003 30.833 74.7554 30.892ZM76.6006 30.7386C76.1116 30.5682 76.1518 30.2782 76.3619 30.1126C76.9403 29.6569 77.5319 29.9889 78.1606 30.1468C77.7966 30.6976 77.4389 31.0307 76.6006 30.7386ZM78.6244 31.4513C78.1703 31.1042 78.4989 30.9203 78.7672 30.7535C79.6677 30.1939 79.9477 30.9947 80.5869 31.1858C79.9505 31.6761 79.4442 32.0778 78.6244 31.4513ZM82.1271 32.8413C81.1766 33.4855 80.866 32.5686 79.896 32.449C80.7254 32.1484 81.0291 31.3619 81.8066 32.0942C82.0243 32.2992 82.7004 32.4528 82.1271 32.8413ZM83.9086 34.0822C83.4768 33.9458 82.7759 33.9385 82.6209 33.508C82.5367 33.274 83.09 32.9836 83.4703 33.1165C83.9111 33.2704 84.6288 33.1338 84.757 33.5886C84.8105 33.7783 84.5096 34.1489 83.9086 34.0822ZM86.1326 34.3999C85.8503 34.3423 85.3698 34.4505 85.4845 34.0878C85.5965 33.7337 85.9021 33.449 86.5132 33.4739C86.9119 33.4902 87.2126 33.5267 87.1885 33.8967C87.1519 34.4593 86.5235 34.2907 86.1326 34.3999ZM88.5116 34.0279C88.013 34.0912 88.0798 33.8478 88.061 33.663C88.0298 33.3571 88.1681 33.1537 88.6284 33.1346C89.042 33.1174 89.1756 33.3055 89.1809 33.5609C89.1885 33.9225 88.7147 33.8949 88.5116 34.0279ZM83.5937 30.6161C82.7059 30.613 81.8125 30.5486 81.1039 30.1041C79.6272 29.1777 77.9043 28.7357 76.0243 28.6702C74.9269 28.6319 74.4161 28.234 74.2927 27.4811C74.1696 26.7302 74.1626 25.9717 74.0379 25.2186C73.9373 24.6113 74.3612 24.2252 75.161 24.0647C75.7123 23.9541 76.2717 23.8654 76.8133 23.7271C79.2651 23.1012 80.9891 22.0162 81.218 19.988C81.2583 20.2869 81.3797 20.5683 81.6286 20.7762C82.3923 21.4142 82.2748 22.0113 82.0207 22.689C81.7959 23.2883 81.8437 23.7876 82.7221 24.0906C83.3168 24.2958 83.432 24.7283 83.4538 25.1751C83.4812 25.7342 83.4344 26.2958 83.5698 26.8512C83.7156 27.4495 83.4155 27.8803 82.6818 28.1389C82.115 28.3387 81.6078 28.6036 81.261 28.9964C80.7457 29.5801 81.1103 30.203 82.0263 30.3362C82.4651 30.4 82.9259 30.4027 83.3239 30.2593C85.0662 29.6316 86.7479 29.3558 88.4775 30.3432C88.9794 30.6297 89.7906 30.7126 90.2373 30.1719C90.2858 30.1132 90.3247 30.0545 90.3578 29.996C90.451 30.222 90.689 30.432 91.1304 30.6109C88.5133 30.6303 86.0534 30.6249 83.5937 30.6161ZM130.086 24.5372C129.566 24.6393 129.33 24.3457 128.77 23.9799C129.502 24.0298 130.019 23.7839 130.296 24.234C130.362 24.3415 130.284 24.4982 130.086 24.5372ZM128.138 22.7454C128.146 22.5627 128.212 22.3897 128.484 22.4649C128.891 22.5772 129.499 22.5051 129.545 23.027C129.566 23.3392 129.243 23.2549 129.017 23.2431C128.592 23.2209 128.119 23.228 128.138 22.7454ZM130.07 20.1914C130.465 20.3428 130.865 20.4704 130.619 20.816C130.561 20.8987 130.268 20.9823 130.18 20.943C129.738 20.7464 130.113 20.4475 130.07 20.1914ZM131.175 23.1316C131.999 22.8161 132.504 22.6227 133.311 22.3138C132.792 23.0806 132.254 23.2622 131.175 23.1316ZM130.962 21.4506C131.612 21.3977 132.119 21.6564 132.053 21.919C131.926 22.4253 131.116 22.4233 130.596 22.5157C130.034 22.6155 129.985 22.1442 130.006 21.8377C130.046 21.2591 130.724 21.5569 130.962 21.4506ZM129.917 17.0693C130.47 17.044 130.6 17.3662 130.679 17.6232C130.771 17.9271 130.51 18.2785 130.149 18.2998C129.758 18.3228 129.317 18.0383 129.219 17.7484C129.098 17.3912 129.556 17.2123 129.917 17.0693ZM128.665 18.521C129.097 18.6903 129.561 18.8582 129.642 19.236C129.677 19.3998 129.571 19.7771 129.229 19.7348C128.836 19.6861 128.33 19.5339 128.266 19.1846C128.23 18.9865 128.296 18.6715 128.665 18.521ZM128.325 20.1972C128.96 20.2627 129.343 20.6371 129.202 21.1938C129.13 21.4761 129.38 21.8717 128.609 21.8143C127.732 21.749 127.908 21.2888 127.884 20.8693C128.023 20.6428 127.633 20.126 128.325 20.1972ZM128.198 26.2383C128.407 26.1637 129 26.4288 128.891 26.7815C128.762 27.1992 128.47 27.5887 128.239 28.0087C127.776 27.8173 127.393 27.6068 127.415 27.3379C127.451 26.9109 127.656 26.4322 128.198 26.2383ZM124.197 18.6361C124.875 18.6656 124.953 18.8749 124.974 19.2992C125.04 20.6314 125.26 20.7531 127.041 20.5482C127.021 21.7321 127.115 22.8788 127.734 24.012C128.123 24.7225 127.443 25.4833 127.007 26.1334C126.684 26.6137 126.359 26.0492 126.174 25.8978C124.275 24.3472 123.062 22.5163 122.368 20.4845C122.346 20.4214 122.35 20.3536 122.33 20.2899C121.811 18.5868 121.894 18.5362 124.197 18.6361ZM110.814 10.888C111.418 10.6617 112.15 10.6501 112.274 11.2533C112.487 12.2858 112.696 13.3364 112.319 14.3893C112.169 14.8092 111.712 15.0166 111.184 15.5115C113.037 15.5115 114.646 15.5529 116.249 15.4969C117.306 15.46 117.84 15.5507 117.619 16.5278C117.424 17.392 117.501 18.3024 117.582 19.1861C117.639 19.8135 117.367 19.986 116.566 19.9671C114.947 19.9292 113.326 19.9558 111.48 19.9558C112.3 21.2333 112.351 22.495 112.386 23.7577C112.405 24.4217 112.304 25.1239 111.194 25.1323C110.101 25.1406 109.95 24.4567 109.951 23.7859C109.952 19.9323 109.956 16.0786 109.947 12.225C109.945 11.661 110.102 11.1545 110.814 10.888ZM104.68 26.0781C104.904 26.5239 104.994 26.6946 105.076 26.8678C106.207 29.2778 108.759 30.5934 111.607 30.2349C115.468 29.749 117.861 27.8351 117.892 25.1943C117.906 24.0426 117.894 22.8907 117.894 21.7339C118.306 21.694 118.298 21.9244 118.376 22.0915C119.552 24.5967 121.638 26.5748 124.582 28.0345C125.252 28.367 125.371 28.5895 124.91 29.1618C123.778 30.5673 122.418 31.2405 120.047 31.1577C115.184 30.9879 110.303 31.0829 105.43 31.125C104.335 31.1345 103.493 30.8863 102.731 30.349C102.799 30.2863 102.845 30.2025 102.898 30.1995C104.68 30.1008 104.68 30.102 104.68 28.7079C104.68 27.9269 104.68 27.1459 104.68 26.0781ZM119.255 33.1894C116.198 35.0484 112.251 35.0842 108.771 33.1894C112.348 33.1894 115.778 33.1894 119.255 33.1894ZM97.2552 30.4866C97.1736 30.6848 97.111 30.9512 96.7747 30.9849C96.4321 31.0193 96.394 30.7776 96.3935 30.5808C96.3928 30.3298 96.4938 30.135 96.9094 30.1558C97.1804 30.1693 97.28 30.2783 97.2552 30.4866ZM96.8058 24.0973C96.7567 22.5174 96.8106 20.9358 96.7841 19.3552C96.7748 18.801 96.9136 18.5736 97.7568 18.7684C98.9171 19.0365 99.9507 19.4232 100.751 20.111C101.028 20.3486 101.278 20.553 101.74 20.4314C102.22 20.305 102.034 19.9927 102.038 19.7598C102.057 18.4756 102.051 17.1911 102.044 15.9068C102.043 15.6229 102.158 15.2873 101.655 15.1507C101.116 15.0041 100.96 15.3572 100.774 15.5897C100.081 16.4552 98.9909 16.8014 97.7452 16.9901C97.0873 17.0897 96.7692 16.9931 96.7818 16.4225C96.8167 14.8422 96.7613 13.2606 96.8087 11.6806C96.8448 10.4782 97.7896 9.66349 99.3549 9.36082C101.054 9.03235 102.554 9.59707 103.569 10.4012C104.798 11.3745 104.634 12.4498 104.638 13.566C104.645 15.048 104.64 16.5299 104.64 18.0119C104.64 19.9879 104.647 21.9639 104.638 23.9398C104.631 25.343 102.861 26.5389 100.785 26.5598C98.4841 26.583 96.8525 25.6011 96.8058 24.0973ZM98.6867 30.7131C98.4596 30.6946 98.0779 30.7692 98.1908 30.4406C98.286 30.1638 98.6288 30.1599 98.9478 30.1659C99.1698 30.17 99.3785 30.1809 99.4348 30.3611C99.2866 30.6448 99.0255 30.7408 98.6867 30.7131ZM101.006 31.2856C100.698 31.2488 100.237 31.2042 100.269 30.8904C100.291 30.6747 100.541 30.3756 100.943 30.4509C101.28 30.5139 101.575 30.7036 101.892 30.8385C101.642 31.1523 101.372 31.3292 101.006 31.2856ZM103.054 32.2608C102.653 32.2683 102.245 32.0462 102.155 31.8045C102.056 31.5383 102.523 31.3755 102.828 31.3546C103.22 31.3277 103.516 31.5622 103.781 31.7829C103.612 32.0115 103.408 32.2541 103.054 32.2608ZM104.231 33.0657C103.993 32.8839 103.838 32.7541 104.146 32.5122C104.863 31.9483 105.272 32.5139 105.948 32.7843C105.34 33.133 104.939 33.6083 104.231 33.0657ZM106.268 34.2124C106.064 34.07 105.521 33.9981 105.939 33.6601C106.703 33.0407 107.379 33.3453 108.061 33.8313C107.587 34.3034 107.157 34.8328 106.268 34.2124ZM109.264 35.4691C108.791 35.4314 108.086 35.2929 108.029 34.9093C107.983 34.6075 108.563 34.2752 109.02 34.2343C109.466 34.1943 109.878 34.4571 110.247 34.6903C109.943 35.0463 109.825 35.5138 109.264 35.4691ZM112.504 35.4051C112.4 35.7897 112.063 36.2039 111.315 36.0524C110.974 35.9832 110.396 35.9919 110.59 35.6071C110.73 35.3283 110.928 34.8131 111.663 35.0279C111.956 35.1632 112.628 34.9522 112.504 35.4051ZM115.171 35.718C114.784 36.6151 113.864 36.1577 113.089 36.2224C113.354 35.4289 113.959 35.1335 114.937 35.2644C115.345 35.3189 115.243 35.551 115.171 35.718ZM116.09 35.9459C116.043 34.7713 117.374 34.861 118.279 34.5443C118.413 35.6458 118.275 35.7335 116.09 35.9459ZM121.187 34.392C120.586 34.6293 120.075 35.0145 119.315 35.0568C118.953 33.9663 120.094 33.783 120.819 33.3885C121.156 33.2053 121.228 33.4548 121.321 33.6392C121.46 33.9132 121.69 34.1937 121.187 34.392ZM122.713 33.6008C122.41 33.7895 122.255 33.6018 122.136 33.4112C121.866 32.982 121.869 32.5936 122.47 32.3215C122.809 32.168 122.935 31.6581 123.442 31.8555C123.74 31.9719 123.872 32.3299 124.108 32.615C123.789 33.06 123.201 33.2962 122.713 33.6008ZM124.913 32.0434C123.649 31.1737 124.421 30.583 125.276 29.9926C126.35 30.9318 126.35 30.9318 124.913 32.0434ZM126.564 28.3688C126.836 28.0908 126.968 28.1425 127.237 28.3459C128.281 29.1377 126.917 29.4992 126.851 30.1346C125.649 29.547 125.961 28.9851 126.564 28.3688ZM129.196 30.279C128.876 30.9663 128.308 31.3021 127.155 31.0165C127.478 30.5791 127.778 30.1852 128.062 29.7853C128.34 29.3938 128.686 29.5928 129.061 29.6839C129.671 29.832 129.3 30.0552 129.196 30.279ZM129.117 25.7792C128.758 25.6866 128.375 25.5792 128.416 25.2026C128.435 25.0261 128.559 24.8538 128.802 24.9227C129.139 25.0183 129.541 25.1272 129.503 25.3769C129.444 25.6646 129.423 25.858 129.117 25.7792Z" fill="white"/>
<path d="M132.805 1.97456C120.245 1.99321 107.686 1.98714 95.1265 1.98764C94.8631 1.98765 94.5988 1.98512 94.3366 1.99995C93.4234 2.05164 93.0108 2.45441 93.019 3.1121C93.0316 4.10855 93.9007 4.25132 94.9887 4.25056C107.636 4.24168 120.283 4.23829 132.93 4.25979C133.794 4.26125 134.44 4.06956 135 3.61868C135 3.28905 135 2.95944 135 2.62981C134.43 2.1048 133.699 1.97323 132.805 1.97456Z" fill="white"/>
<path d="M66.9428 4.15635C66.0883 4.23371 66.1225 4.53188 66.0911 4.98613C66.0533 5.53202 66.3756 5.64636 67.0283 5.63701C69.5309 5.60115 71.5112 4.95465 72.5468 3.06516C72.6483 3.42542 72.6419 3.74118 72.6495 4.05674C72.6795 5.30816 73.1209 5.65796 74.7445 5.67937C75.8854 5.69443 77.0287 5.65324 78.1676 5.69216C78.9371 5.71845 79.1165 5.4865 79.1254 4.94599C79.1348 4.36944 78.8599 4.1986 78.1311 4.23219C77.3003 4.27048 76.4626 4.21959 75.6303 4.24711C75.005 4.26779 74.81 4.08639 74.7799 3.62224C74.7349 2.9287 74.8536 2.47162 76.0175 2.589C76.7074 2.65859 77.4199 2.59819 78.1221 2.60603C78.3727 2.60883 78.7727 2.57732 78.7701 2.80931C78.7606 3.6606 79.5764 3.40393 80.1547 3.4145C81.383 3.43694 82.6126 3.42155 83.8416 3.42132C85.5868 3.42098 85.5868 3.42085 85.456 2.07496C86.5553 1.82545 87.713 1.71268 88.7168 2.13297C89.1277 2.30503 87.3443 3.89716 86.3246 4.15439C86.2422 4.17518 86.1517 4.20295 86.0698 4.19593C84.8481 4.09096 85.1618 4.76557 85.1787 5.23062C85.2059 5.98103 85.9571 5.6349 86.4509 5.64585C86.991 5.65781 87.5864 5.57891 87.9371 5.31595C88.9612 4.54806 89.8026 4.59414 90.7233 5.41226C90.9617 5.62409 91.419 5.80698 92.0443 5.72459C91.7568 5.21677 92.3834 4.57874 91.6219 4.18385C90.5616 3.63409 90.599 2.99902 90.8782 2.14757C91.3772 0.62596 91.1233 0.454407 89.1058 0.454299C88.315 0.454263 87.5222 0.480611 86.7341 0.44668C86.0069 0.415366 85.521 0.501687 85.6569 1.17528C85.7122 1.44978 85.6228 1.71704 85.1545 1.71534C85.0485 1.68993 84.9256 1.69712 84.8008 1.71173C84.3862 1.70819 83.9712 1.71387 83.556 1.72225C82.9497 1.71579 82.3416 1.74058 81.7339 1.75302C80.8574 1.75456 79.9824 1.72162 79.1112 1.58871C79.1091 1.58828 79.107 1.58801 79.1049 1.58758C79.1822 0.983484 79.2644 0.32504 78.3282 0.0763137C77.5482 -0.130935 76.9428 0.0826142 76.5531 0.733213C76.2654 1.21338 75.0938 1.11857 74.8275 0.60609C74.6689 0.300968 74.4818 0.226528 74.0979 0.172305C72.8354 -0.00598676 72.0654 1.10052 70.7947 0.85739C70.7446 1.01224 70.6713 1.16514 70.6477 1.32225C70.3326 3.42089 69.7749 3.89997 66.9428 4.15635ZM77.2456 0.853827C77.2851 0.585065 77.497 0.44639 77.8601 0.45571C78.2891 0.466731 78.4402 0.685628 78.5261 0.929755C78.4021 1.23465 78.2049 1.45042 77.7837 1.41376C77.3652 1.37733 77.2011 1.15653 77.2456 0.853827Z" fill="white"/>
<path d="M59.8769 2.81857C60.5848 2.84968 61.2674 2.9986 61.3705 2.07702C61.4591 1.28479 62.5661 1.73074 63.2069 1.68936C63.9551 1.64103 63.6894 2.07034 63.6038 2.38192C63.2639 3.61815 62.4905 4.08399 60.3843 4.19155C59.7611 4.22338 59.4467 4.36199 59.5964 4.81647C59.7033 5.14126 59.165 5.65231 60.0305 5.77829C62.0334 6.06984 64.6634 4.86371 65.4278 3.39872C65.7248 2.8297 65.2922 1.97816 66.0789 1.7197C66.818 1.47688 67.8005 1.6508 68.6759 1.64143C68.7197 1.64096 68.7645 1.63695 68.8072 1.64196C69.6516 1.74102 69.9313 1.49601 69.9222 0.839235C69.9135 0.217971 69.6526 0.0562815 68.861 0.0823399C67.4614 0.128417 66.0572 0.0952585 64.6549 0.0951861C63.6471 0.0951137 62.6392 0.0951137 61.6313 0.0951137C59.2909 0.0951258 59.2656 0.0956083 59.3245 1.83895C59.336 2.17953 58.8887 2.77515 59.8769 2.81857Z" fill="white"/>
<path d="M15.8279 23.7915C17.7662 23.8223 19.4729 22.5735 19.474 21.1235C19.4752 19.714 17.8482 18.476 15.9627 18.4517C14.0213 18.4267 12.4153 19.5745 12.3659 21.0223C12.3138 22.5492 13.8272 23.7598 15.8279 23.7915Z" fill="white"/>
<path d="M25.9784 23.7917C27.9396 23.7926 29.567 22.5486 29.5337 21.0739C29.5012 19.6422 27.8888 18.4518 25.9817 18.4516C24.0933 18.4514 22.4538 19.6549 22.4126 21.0716C22.3706 22.5209 24.0352 23.7907 25.9784 23.7917Z" fill="white"/>
<path d="M20.9306 25.5454C21.7694 25.5675 22.2461 25.1273 22.4046 24.4767C22.2777 23.9042 21.892 23.4438 21.0223 23.4112C20.1619 23.3789 19.5975 23.7568 19.5323 24.3928C19.4606 25.0935 20.0486 25.5222 20.9306 25.5454Z" fill="white"/>
</svg>
