<svg width="105" height="96" viewBox="0 0 105 96" fill="none" xmlns="http://www.w3.org/2000/svg">
<path d="M28.5 0H76.5V48H28.5V0ZM41.1133 40.1067C42.18 42.3733 44.2867 44.24 47.8867 44.24C51.8867 44.24 54.6333 42.1067 54.6333 37.44V22.0267H50.1V37.3333C50.1 39.6267 49.1667 40.2133 47.7 40.2133C46.1533 40.2133 45.5133 39.1467 44.7933 37.8933L41.1133 40.1067ZM57.06 39.6267C58.3933 42.24 61.0867 44.24 65.3 44.24C69.5667 44.24 72.7667 42.0267 72.7667 37.9467C72.7667 34.1867 70.6067 32.5067 66.7667 30.8533L65.6467 30.3733C63.7 29.5467 62.8733 28.9867 62.8733 27.6533C62.8733 26.56 63.7 25.7067 65.0333 25.7067C66.3133 25.7067 67.1667 26.2667 67.94 27.6533L71.4333 25.3333C69.9667 22.7733 67.8867 21.7867 65.0333 21.7867C61.0067 21.7867 58.42 24.3467 58.42 27.7333C58.42 31.4133 60.58 33.1467 63.8333 34.5333L64.9533 35.0133C67.0333 35.92 68.26 36.48 68.26 38.0267C68.26 39.3067 67.06 40.24 65.1933 40.24C62.98 40.24 61.7 39.0933 60.74 37.4933L57.06 39.6267Z" fill="white"/>
<path d="M8.06 65.02V75.6C8.06 76.6667 7.73333 77.5267 7.08 78.18C6.42667 78.82 5.55333 79.14 4.46 79.14C3.32667 79.14 2.42 78.8 1.74 78.12C1.07333 77.4267 0.74 76.4933 0.74 75.32H2.16C2.17333 76.08 2.36 76.7 2.72 77.18C3.09333 77.66 3.67333 77.9 4.46 77.9C5.20667 77.9 5.76 77.68 6.12 77.24C6.48 76.8 6.66 76.2533 6.66 75.6V65.02H8.06ZM10.9405 73.52C10.9405 72.4 11.1605 71.42 11.6005 70.58C12.0538 69.7267 12.6738 69.0733 13.4605 68.62C14.2605 68.1533 15.1605 67.92 16.1605 67.92C17.2005 67.92 18.0938 68.16 18.8405 68.64C19.6005 69.12 20.1471 69.7333 20.4805 70.48V68.08H21.8805V79H20.4805V76.58C20.1338 77.3267 19.5805 77.9467 18.8205 78.44C18.0738 78.92 17.1805 79.16 16.1405 79.16C15.1538 79.16 14.2605 78.9267 13.4605 78.46C12.6738 77.9933 12.0538 77.3333 11.6005 76.48C11.1605 75.6267 10.9405 74.64 10.9405 73.52ZM20.4805 73.54C20.4805 72.66 20.3005 71.8867 19.9405 71.22C19.5805 70.5533 19.0871 70.04 18.4605 69.68C17.8471 69.32 17.1671 69.14 16.4205 69.14C15.6471 69.14 14.9538 69.3133 14.3405 69.66C13.7271 70.0067 13.2405 70.5133 12.8805 71.18C12.5338 71.8333 12.3605 72.6133 12.3605 73.52C12.3605 74.4133 12.5338 75.2 12.8805 75.88C13.2405 76.5467 13.7271 77.06 14.3405 77.42C14.9538 77.7667 15.6471 77.94 16.4205 77.94C17.1671 77.94 17.8471 77.76 18.4605 77.4C19.0871 77.04 19.5805 76.5267 19.9405 75.86C20.3005 75.1933 20.4805 74.42 20.4805 73.54ZM28.9566 77.64L32.6366 68.08H34.1166L29.7366 79H28.1566L23.7766 68.08H25.2766L28.9566 77.64ZM35.3741 73.52C35.3741 72.4 35.5941 71.42 36.0341 70.58C36.4874 69.7267 37.1074 69.0733 37.8941 68.62C38.6941 68.1533 39.5941 67.92 40.5941 67.92C41.6341 67.92 42.5274 68.16 43.2741 68.64C44.0341 69.12 44.5807 69.7333 44.9141 70.48V68.08H46.3141V79H44.9141V76.58C44.5674 77.3267 44.0141 77.9467 43.2541 78.44C42.5074 78.92 41.6141 79.16 40.5741 79.16C39.5874 79.16 38.6941 78.9267 37.8941 78.46C37.1074 77.9933 36.4874 77.3333 36.0341 76.48C35.5941 75.6267 35.3741 74.64 35.3741 73.52ZM44.9141 73.54C44.9141 72.66 44.7341 71.8867 44.3741 71.22C44.0141 70.5533 43.5207 70.04 42.8941 69.68C42.2807 69.32 41.6007 69.14 40.8541 69.14C40.0807 69.14 39.3874 69.3133 38.7741 69.66C38.1607 70.0067 37.6741 70.5133 37.3141 71.18C36.9674 71.8333 36.7941 72.6133 36.7941 73.52C36.7941 74.4133 36.9674 75.2 37.3141 75.88C37.6741 76.5467 38.1607 77.06 38.7741 77.42C39.3874 77.7667 40.0807 77.94 40.8541 77.94C41.6007 77.94 42.2807 77.76 42.8941 77.4C43.5207 77.04 44.0141 76.5267 44.3741 75.86C44.7341 75.1933 44.9141 74.42 44.9141 73.54ZM53.7502 79.14C52.8302 79.14 52.0168 78.98 51.3102 78.66C50.6168 78.34 50.0702 77.8933 49.6702 77.32C49.2702 76.7467 49.0568 76.1067 49.0302 75.4H50.5102C50.5768 76.08 50.8768 76.68 51.4102 77.2C51.9435 77.7067 52.7235 77.96 53.7502 77.96C54.6968 77.96 55.4435 77.72 55.9902 77.24C56.5502 76.7467 56.8302 76.1267 56.8302 75.38C56.8302 74.78 56.6768 74.3 56.3702 73.94C56.0635 73.5667 55.6835 73.2933 55.2302 73.12C54.7768 72.9333 54.1502 72.7333 53.3502 72.52C52.4168 72.2667 51.6768 72.02 51.1302 71.78C50.5835 71.54 50.1168 71.1667 49.7302 70.66C49.3435 70.1533 49.1502 69.4667 49.1502 68.6C49.1502 67.88 49.3368 67.24 49.7102 66.68C50.0835 66.1067 50.6102 65.66 51.2902 65.34C51.9702 65.02 52.7502 64.86 53.6302 64.86C54.9235 64.86 55.9635 65.18 56.7502 65.82C57.5502 66.4467 58.0102 67.26 58.1302 68.26H56.6102C56.5168 67.6867 56.2035 67.18 55.6702 66.74C55.1368 66.2867 54.4168 66.06 53.5102 66.06C52.6702 66.06 51.9702 66.2867 51.4102 66.74C50.8502 67.18 50.5702 67.7867 50.5702 68.56C50.5702 69.1467 50.7235 69.62 51.0302 69.98C51.3368 70.34 51.7168 70.6133 52.1702 70.8C52.6368 70.9867 53.2635 71.1867 54.0502 71.4C54.9568 71.6533 55.6902 71.9067 56.2502 72.16C56.8102 72.4 57.2835 72.7733 57.6702 73.28C58.0568 73.7867 58.2502 74.4667 58.2502 75.32C58.2502 75.9733 58.0768 76.5933 57.7302 77.18C57.3835 77.7667 56.8702 78.24 56.1902 78.6C55.5102 78.96 54.6968 79.14 53.7502 79.14ZM60.3155 73.54C60.3155 72.4067 60.5421 71.42 60.9955 70.58C61.4488 69.7267 62.0755 69.0733 62.8755 68.62C63.6755 68.1533 64.5888 67.92 65.6155 67.92C66.9621 67.92 68.0688 68.2533 68.9355 68.92C69.8155 69.5867 70.3821 70.4933 70.6355 71.64H69.1355C68.9488 70.8533 68.5421 70.24 67.9155 69.8C67.3021 69.3467 66.5355 69.12 65.6155 69.12C64.8821 69.12 64.2221 69.2867 63.6355 69.62C63.0488 69.9533 62.5821 70.4533 62.2355 71.12C61.9021 71.7733 61.7355 72.58 61.7355 73.54C61.7355 74.5 61.9021 75.3133 62.2355 75.98C62.5821 76.6467 63.0488 77.1467 63.6355 77.48C64.2221 77.8133 64.8821 77.98 65.6155 77.98C66.5355 77.98 67.3021 77.76 67.9155 77.32C68.5421 76.8667 68.9488 76.24 69.1355 75.44H70.6355C70.3821 76.56 69.8155 77.46 68.9355 78.14C68.0555 78.82 66.9488 79.16 65.6155 79.16C64.5888 79.16 63.6755 78.9333 62.8755 78.48C62.0755 78.0133 61.4488 77.36 60.9955 76.52C60.5421 75.6667 60.3155 74.6733 60.3155 73.54ZM74.6211 70.02C74.9278 69.34 75.3944 68.8133 76.0211 68.44C76.6611 68.0667 77.4411 67.88 78.3611 67.88V69.34H77.9811C76.9678 69.34 76.1544 69.6133 75.5411 70.16C74.9278 70.7067 74.6211 71.62 74.6211 72.9V79H73.2211V68.08H74.6211V70.02ZM81.1672 66.02C80.8872 66.02 80.6472 65.92 80.4472 65.72C80.2472 65.52 80.1472 65.2733 80.1472 64.98C80.1472 64.6867 80.2472 64.4467 80.4472 64.26C80.6472 64.06 80.8872 63.96 81.1672 63.96C81.4472 63.96 81.6872 64.06 81.8872 64.26C82.0872 64.4467 82.1872 64.6867 82.1872 64.98C82.1872 65.2733 82.0872 65.52 81.8872 65.72C81.6872 65.92 81.4472 66.02 81.1672 66.02ZM81.8672 68.08V79H80.4672V68.08H81.8672ZM86.4175 70.48C86.7642 69.7467 87.3108 69.14 88.0575 68.66C88.8175 68.1667 89.7175 67.92 90.7575 67.92C91.7442 67.92 92.6308 68.1533 93.4175 68.62C94.2175 69.0733 94.8375 69.7267 95.2775 70.58C95.7308 71.42 95.9575 72.4 95.9575 73.52C95.9575 74.64 95.7308 75.6267 95.2775 76.48C94.8375 77.3333 94.2175 77.9933 93.4175 78.46C92.6308 78.9267 91.7442 79.16 90.7575 79.16C89.7308 79.16 88.8375 78.92 88.0775 78.44C87.3175 77.9467 86.7642 77.3333 86.4175 76.6V84.16H85.0375V68.08H86.4175V70.48ZM94.5375 73.52C94.5375 72.6133 94.3575 71.8333 93.9975 71.18C93.6508 70.5133 93.1708 70.0067 92.5575 69.66C91.9442 69.3133 91.2508 69.14 90.4775 69.14C89.7308 69.14 89.0442 69.32 88.4175 69.68C87.8042 70.04 87.3175 70.5533 86.9575 71.22C86.5975 71.8867 86.4175 72.66 86.4175 73.54C86.4175 74.42 86.5975 75.1933 86.9575 75.86C87.3175 76.5267 87.8042 77.04 88.4175 77.4C89.0442 77.76 89.7308 77.94 90.4775 77.94C91.2508 77.94 91.9442 77.7667 92.5575 77.42C93.1708 77.06 93.6508 76.5467 93.9975 75.88C94.3575 75.2 94.5375 74.4133 94.5375 73.52ZM100.354 69.26V76.04C100.354 76.7067 100.48 77.1667 100.734 77.42C100.987 77.6733 101.434 77.8 102.074 77.8H103.354V79H101.854C100.867 79 100.134 78.7733 99.6536 78.32C99.1736 77.8533 98.9336 77.0933 98.9336 76.04V69.26H97.4136V68.08H98.9336V65.34H100.354V68.08H103.354V69.26H100.354Z" fill="white"/>
</svg>
