<svg width="1366" height="403" viewBox="0 0 1366 403" fill="none" xmlns="http://www.w3.org/2000/svg">
<g clip-path="url(#clip0_125_3)">
<path d="M0 0H1366V403H0V0Z" fill="#040618"/>
<g filter="url(#filter0_b_125_3)">
<ellipse cx="683" cy="341.5" rx="446" ry="90.5" fill="url(#paint0_radial_125_3)"/>
<path d="M1128.95 341.5C1128.95 347.73 1125.84 353.818 1119.9 359.703C1113.97 365.589 1105.21 371.269 1093.93 376.682C1071.37 387.506 1038.71 397.256 998.36 405.444C917.654 421.821 806.157 431.95 683 431.95C559.843 431.95 448.346 421.821 367.64 405.444C327.287 397.256 294.634 387.506 272.071 376.682C260.789 371.269 252.032 365.589 246.096 359.703C240.161 353.818 237.05 347.73 237.05 341.5C237.05 335.27 240.161 329.182 246.096 323.297C252.032 317.411 260.789 311.731 272.071 306.318C294.634 295.494 327.287 285.744 367.64 277.556C448.346 261.179 559.843 251.05 683 251.05C806.157 251.05 917.654 261.179 998.36 277.556C1038.71 285.744 1071.37 295.494 1093.93 306.318C1105.21 311.731 1113.97 317.411 1119.9 323.297C1125.84 329.182 1128.95 335.27 1128.95 341.5Z" stroke="url(#paint1_radial_125_3)" stroke-width="0.1"/>
</g>
<mask id="path-4-inside-1_125_3" fill="white">
<path fill-rule="evenodd" clip-rule="evenodd" d="M1029 624.902C1197.77 588.263 1309 525.622 1309 454.5C1309 341.558 1028.51 250 682.5 250C437.259 250 224.929 295.995 122.057 363H92V386.01C68.6895 407.422 56 430.478 56 454.5C56 478.522 68.6895 501.578 92 522.99V686H1029V624.902Z"/>
</mask>
<path fill-rule="evenodd" clip-rule="evenodd" d="M1029 624.902C1197.77 588.263 1309 525.622 1309 454.5C1309 341.558 1028.51 250 682.5 250C437.259 250 224.929 295.995 122.057 363H92V386.01C68.6895 407.422 56 430.478 56 454.5C56 478.522 68.6895 501.578 92 522.99V686H1029V624.902Z" fill="#040618"/>
<path d="M1029 624.902L1028.58 622.948L1027 623.29V624.902H1029ZM122.057 363V365H122.651L123.148 364.676L122.057 363ZM92 363V361H90V363H92ZM92 386.01L93.353 387.483L94 386.889V386.01H92ZM92 522.99H94V522.111L93.353 521.517L92 522.99ZM92 686H90V688H92V686ZM1029 686V688H1031V686H1029ZM1307 454.5C1307 488.948 1280.02 521.87 1231.27 550.914C1182.62 579.891 1112.85 604.652 1028.58 622.948L1029.42 626.857C1113.92 608.513 1184.15 583.634 1233.31 554.35C1282.36 525.134 1311 491.173 1311 454.5H1307ZM682.5 252C855.352 252 1011.76 274.872 1124.88 311.798C1181.45 330.264 1227.09 352.21 1258.54 376.483C1290.02 400.777 1307 427.158 1307 454.5H1311C1311 425.371 1292.91 397.954 1260.99 373.316C1229.04 348.657 1182.92 326.536 1126.12 307.995C1012.5 270.907 855.655 248 682.5 248V252ZM123.148 364.676C174.284 331.369 252.808 303.184 349.293 283.332C445.741 263.488 559.998 252 682.5 252V248C559.761 248 445.231 259.509 348.487 279.414C251.779 299.312 172.701 327.627 120.965 361.324L123.148 364.676ZM92 365H122.057V361H92V365ZM94 386.01V363H90V386.01H94ZM58 454.5C58 431.237 70.2806 408.677 93.353 387.483L90.647 384.537C67.0985 406.168 54 429.718 54 454.5H58ZM93.353 521.517C70.2806 500.323 58 477.763 58 454.5H54C54 479.282 67.0985 502.832 90.647 524.463L93.353 521.517ZM94 686V522.99H90V686H94ZM1029 684H92V688H1029V684ZM1027 624.902V686H1031V624.902H1027Z" fill="url(#paint2_radial_125_3)" mask="url(#path-4-inside-1_125_3)"/>
<path d="M1029 624.902L1028.58 622.948L1027 623.29V624.902H1029ZM122.057 363V365H122.651L123.148 364.676L122.057 363ZM92 363V361H90V363H92ZM92 386.01L93.353 387.483L94 386.889V386.01H92ZM92 522.99H94V522.111L93.353 521.517L92 522.99ZM92 686H90V688H92V686ZM1029 686V688H1031V686H1029ZM1307 454.5C1307 488.948 1280.02 521.87 1231.27 550.914C1182.62 579.891 1112.85 604.652 1028.58 622.948L1029.42 626.857C1113.92 608.513 1184.15 583.634 1233.31 554.35C1282.36 525.134 1311 491.173 1311 454.5H1307ZM682.5 252C855.352 252 1011.76 274.872 1124.88 311.798C1181.45 330.264 1227.09 352.21 1258.54 376.483C1290.02 400.777 1307 427.158 1307 454.5H1311C1311 425.371 1292.91 397.954 1260.99 373.316C1229.04 348.657 1182.92 326.536 1126.12 307.995C1012.5 270.907 855.655 248 682.5 248V252ZM123.148 364.676C174.284 331.369 252.808 303.184 349.293 283.332C445.741 263.488 559.998 252 682.5 252V248C559.761 248 445.231 259.509 348.487 279.414C251.779 299.312 172.701 327.627 120.965 361.324L123.148 364.676ZM92 365H122.057V361H92V365ZM94 386.01V363H90V386.01H94ZM58 454.5C58 431.237 70.2806 408.677 93.353 387.483L90.647 384.537C67.0985 406.168 54 429.718 54 454.5H58ZM93.353 521.517C70.2806 500.323 58 477.763 58 454.5H54C54 479.282 67.0985 502.832 90.647 524.463L93.353 521.517ZM94 686V522.99H90V686H94ZM1029 684H92V688H1029V684ZM1027 624.902V686H1031V624.902H1027Z" fill="url(#paint3_linear_125_3)" fill-opacity="0.2" mask="url(#path-4-inside-1_125_3)"/>
<circle cx="815.5" cy="100.5" r="0.5" fill="#D9D9D9"/>
<circle cx="927.5" cy="250.5" r="0.5" fill="#D9D9D9"/>
<path fill-rule="evenodd" clip-rule="evenodd" d="M697 123L696.818 124.8L695.999 125L695.182 124.8L695 123H697ZM696 123.589H695.646L695.669 123.815H696H696.581L696.575 123.874L696.516 124.455L696.512 124.493L696 124.618L695.999 124.618L695.486 124.493L695.451 124.146H695.702L695.72 124.322L695.999 124.388L695.999 124.388L696.278 124.322L696.307 124.036H696H695.44L695.378 123.427L695.372 123.368H696H696.626L696.62 123.427L696.609 123.539L696.604 123.589H696Z" fill="white"/>
</g>
<defs>
<filter id="filter0_b_125_3" x="37" y="51" width="1292" height="581" filterUnits="userSpaceOnUse" color-interpolation-filters="sRGB">
<feFlood flood-opacity="0" result="BackgroundImageFix"/>
<feGaussianBlur in="BackgroundImageFix" stdDeviation="100"/>
<feComposite in2="SourceAlpha" operator="in" result="effect1_backgroundBlur_125_3"/>
<feBlend mode="normal" in="SourceGraphic" in2="effect1_backgroundBlur_125_3" result="shape"/>
</filter>
<radialGradient id="paint0_radial_125_3" cx="0" cy="0" r="1" gradientUnits="userSpaceOnUse" gradientTransform="translate(683 341.5) rotate(90) scale(90.5 446)">
<stop stop-color="#24274B"/>
<stop offset="1" stop-color="#24274B" stop-opacity="0"/>
</radialGradient>
<radialGradient id="paint1_radial_125_3" cx="0" cy="0" r="1" gradientUnits="userSpaceOnUse" gradientTransform="translate(683 341.5) rotate(90) scale(90.5 446)">
<stop/>
<stop offset="1" stop-opacity="0"/>
</radialGradient>
<radialGradient id="paint2_radial_125_3" cx="0" cy="0" r="1" gradientUnits="userSpaceOnUse" gradientTransform="translate(683 277.195) rotate(90) scale(149.877 437.6)">
<stop stop-color="#4B4881"/>
<stop offset="1" stop-opacity="0"/>
</radialGradient>
<linearGradient id="paint3_linear_125_3" x1="668" y1="286.5" x2="668.073" y2="678.5" gradientUnits="userSpaceOnUse">
<stop stop-color="#4B4881"/>
<stop offset="0.145833" stop-color="#4B4881" stop-opacity="0"/>
</linearGradient>
<clipPath id="clip0_125_3">
<path d="M0 0H1366V403H0V0Z" fill="white"/>
</clipPath>
</defs>
</svg>
