<svg width="105" height="96" viewBox="0 0 105 96" fill="none" xmlns="http://www.w3.org/2000/svg">
<path d="M76.5 24.0055C76.5 20.4349 72.5179 17.051 66.4128 14.9526C67.8216 7.96521 67.1955 2.40604 64.4364 0.62623C63.8004 0.208743 63.0569 0.0109863 62.2448 0.0109863V2.46098C62.6949 2.46098 63.0569 2.55985 63.3602 2.74662C64.6908 3.60357 65.268 6.86656 64.818 11.0634C64.7104 12.0961 64.5342 13.1838 64.319 14.2934C62.4013 13.7661 60.3076 13.3596 58.1062 13.0959C56.7854 11.0634 55.4156 9.21767 54.0361 7.60265C57.2256 4.27375 60.2195 2.44999 62.2546 2.44999V0C59.564 0 56.0418 2.15335 52.4804 5.88876C48.9191 2.17533 45.3969 0.0439461 42.7063 0.0439461V2.49393C44.7316 2.49393 47.7352 4.30671 50.9248 7.61364C49.555 9.22866 48.1853 11.0634 46.884 13.0959C44.6729 13.3596 42.5791 13.7661 40.6614 14.3044C40.4364 13.2058 40.2701 12.1401 40.1527 11.1183C39.6928 6.92149 40.2603 3.6585 41.5811 2.79057C41.8746 2.59281 42.2562 2.50492 42.7063 2.50492V0.0549325C41.8844 0.0549325 41.1408 0.252689 40.4951 0.670176C37.7458 2.44999 37.1294 7.99817 38.5481 14.9636C32.4625 17.073 28.5 20.4459 28.5 24.0055C28.5 27.5761 32.4821 30.9599 38.5872 33.0584C37.1784 40.0458 37.8045 45.6049 40.5636 47.3848C41.1996 47.8022 41.9431 48 42.765 48C45.4556 48 48.9778 45.8466 52.5391 42.1112C56.1005 45.8247 59.6227 47.9561 62.3133 47.9561C63.1351 47.9561 63.8787 47.7583 64.5245 47.3408C67.2737 45.561 67.8901 40.0128 66.4715 33.0474C72.5375 30.949 76.5 27.5651 76.5 24.0055ZM63.7613 16.6775C63.3993 18.0948 62.9492 19.556 62.4405 21.0172C62.0393 20.1382 61.6186 19.2593 61.1588 18.3804C60.7087 17.5015 60.2293 16.6445 59.7499 15.8096C61.1392 16.0403 62.4796 16.3259 63.7613 16.6775ZM59.2803 28.3781C58.5171 29.8613 57.7344 31.2676 56.9223 32.575C55.4645 32.7178 53.9872 32.7947 52.5 32.7947C51.0226 32.7947 49.5453 32.7178 48.0972 32.5859C47.2852 31.2786 46.4927 29.8833 45.7295 28.4111C44.9859 26.9718 44.3108 25.5106 43.6945 24.0384C44.3011 22.5663 44.9859 21.0941 45.7197 19.6548C46.4829 18.1717 47.2656 16.7654 48.0777 15.458C49.5355 15.3152 51.0128 15.2383 52.5 15.2383C53.9774 15.2383 55.4547 15.3152 56.9028 15.447C57.7148 16.7544 58.5073 18.1497 59.2705 19.6219C60.0141 21.0611 60.6892 22.5223 61.3055 23.9945C60.6892 25.4667 60.0141 26.9389 59.2803 28.3781ZM62.4405 26.9499C62.9688 28.4221 63.4189 29.8943 63.7907 31.3225C62.509 31.6741 61.1588 31.9707 59.7597 32.2014C60.2391 31.3555 60.7185 30.4875 61.1686 29.5976C61.6186 28.7187 62.0393 27.8288 62.4405 26.9499ZM52.5196 38.6725C51.6097 37.6178 50.6998 36.4422 49.7996 35.1568C50.6802 35.2007 51.5803 35.2337 52.4902 35.2337C53.4099 35.2337 54.3198 35.2117 55.2102 35.1568C54.3296 36.4422 53.4197 37.6178 52.5196 38.6725ZM45.2403 32.2014C43.851 31.9707 42.5106 31.6851 41.2289 31.3335C41.5909 29.9162 42.041 28.455 42.5497 26.9938C42.9509 27.8727 43.3716 28.7517 43.8314 29.6306C44.2913 30.5095 44.7609 31.3664 45.2403 32.2014ZM52.4707 9.33852C53.3806 10.3932 54.2905 11.5688 55.1906 12.8542C54.31 12.8103 53.4099 12.7773 52.5 12.7773C51.5803 12.7773 50.6704 12.7993 49.7801 12.8542C50.6606 11.5688 51.5705 10.3932 52.4707 9.33852ZM45.2305 15.8096C44.7511 16.6555 44.2717 17.5235 43.8216 18.4134C43.3716 19.2923 42.9509 20.1712 42.5497 21.0501C42.0214 19.5779 41.5713 18.1057 41.1996 16.6775C42.4812 16.3369 43.8314 16.0403 45.2305 15.8096ZM36.3761 29.5647C32.9126 27.9057 30.672 25.7304 30.672 24.0055C30.672 22.2806 32.9126 20.0943 36.3761 18.4463C37.2175 18.0398 38.1372 17.6773 39.0862 17.3367C39.6439 19.49 40.3777 21.7313 41.2876 24.0275C40.3875 26.3127 39.6635 28.5429 39.1156 30.6853C38.147 30.3447 37.2273 29.9712 36.3761 29.5647ZM41.6398 45.2644C40.3092 44.4074 39.732 41.1444 40.182 36.9476C40.2896 35.9149 40.4658 34.8272 40.681 33.7176C42.5987 34.2449 44.6924 34.6514 46.8938 34.9151C48.2146 36.9476 49.5844 38.7933 50.9639 40.4083C47.7744 43.7372 44.7805 45.561 42.7454 45.561C42.3051 45.55 41.9333 45.4511 41.6398 45.2644ZM64.8473 36.8926C65.3072 41.0895 64.7397 44.3525 63.4189 45.2204C63.1254 45.4182 62.7438 45.5061 62.2937 45.5061C60.2684 45.5061 57.2648 43.6933 54.0752 40.3864C55.445 38.7713 56.8147 36.9366 58.116 34.9041C60.3272 34.6404 62.4209 34.2339 64.3386 33.6956C64.5636 34.8052 64.7397 35.8709 64.8473 36.8926ZM68.6141 29.5647C67.7727 29.9712 66.853 30.3337 65.904 30.6743C65.3463 28.5209 64.6125 26.2797 63.7026 23.9835C64.6027 21.6983 65.3267 19.4681 65.8746 17.3257C66.8433 17.6663 67.7629 18.0398 68.6239 18.4463C72.0874 20.1053 74.328 22.2806 74.328 24.0055C74.3182 25.7304 72.0777 27.9167 68.6141 29.5647Z" fill="white"/>
<path d="M52.4903 29.0263C54.9597 29.0263 56.9616 26.7784 56.9616 24.0055C56.9616 21.2326 54.9597 18.9847 52.4903 18.9847C50.0209 18.9847 48.019 21.2326 48.019 24.0055C48.019 26.7784 50.0209 29.0263 52.4903 29.0263Z" fill="white"/>
<path d="M19.5478 79L16.0878 73.16H13.5078V79H12.1078V65.02H16.3078C17.8678 65.02 19.0478 65.3933 19.8478 66.14C20.6611 66.8867 21.0678 67.8667 21.0678 69.08C21.0678 70.0933 20.7745 70.96 20.1878 71.68C19.6145 72.3867 18.7611 72.8467 17.6278 73.06L21.2278 79H19.5478ZM13.5078 72.02H16.3278C17.4211 72.02 18.2411 71.7533 18.7878 71.22C19.3478 70.6867 19.6278 69.9733 19.6278 69.08C19.6278 68.16 19.3611 67.4533 18.8278 66.96C18.2945 66.4533 17.4545 66.2 16.3078 66.2H13.5078V72.02ZM33.7261 72.98C33.7261 73.46 33.7128 73.8267 33.6861 74.08H24.6261C24.6661 74.9067 24.8661 75.6133 25.2261 76.2C25.5861 76.7867 26.0594 77.2333 26.6461 77.54C27.2328 77.8333 27.8728 77.98 28.5661 77.98C29.4728 77.98 30.2328 77.76 30.8461 77.32C31.4728 76.88 31.8861 76.2867 32.0861 75.54H33.5661C33.2994 76.6067 32.7261 77.48 31.8461 78.16C30.9794 78.8267 29.8861 79.16 28.5661 79.16C27.5394 79.16 26.6194 78.9333 25.8061 78.48C24.9928 78.0133 24.3528 77.36 23.8861 76.52C23.4328 75.6667 23.2061 74.6733 23.2061 73.54C23.2061 72.4067 23.4328 71.4133 23.8861 70.56C24.3394 69.7067 24.9728 69.0533 25.7861 68.6C26.5994 68.1467 27.5261 67.92 28.5661 67.92C29.6061 67.92 30.5128 68.1467 31.2861 68.6C32.0728 69.0533 32.6728 69.6667 33.0861 70.44C33.5128 71.2 33.7261 72.0467 33.7261 72.98ZM32.3061 72.94C32.3194 72.1267 32.1528 71.4333 31.8061 70.86C31.4728 70.2867 31.0128 69.8533 30.4261 69.56C29.8394 69.2667 29.1994 69.12 28.5061 69.12C27.4661 69.12 26.5794 69.4533 25.8461 70.12C25.1128 70.7867 24.7061 71.7267 24.6261 72.94H32.3061ZM35.6475 73.52C35.6475 72.4 35.8675 71.42 36.3075 70.58C36.7608 69.7267 37.3808 69.0733 38.1675 68.62C38.9675 68.1533 39.8675 67.92 40.8675 67.92C41.9075 67.92 42.8008 68.16 43.5475 68.64C44.3075 69.12 44.8542 69.7333 45.1875 70.48V68.08H46.5875V79H45.1875V76.58C44.8408 77.3267 44.2875 77.9467 43.5275 78.44C42.7808 78.92 41.8875 79.16 40.8475 79.16C39.8608 79.16 38.9675 78.9267 38.1675 78.46C37.3808 77.9933 36.7608 77.3333 36.3075 76.48C35.8675 75.6267 35.6475 74.64 35.6475 73.52ZM45.1875 73.54C45.1875 72.66 45.0075 71.8867 44.6475 71.22C44.2875 70.5533 43.7942 70.04 43.1675 69.68C42.5542 69.32 41.8742 69.14 41.1275 69.14C40.3542 69.14 39.6608 69.3133 39.0475 69.66C38.4342 70.0067 37.9475 70.5133 37.5875 71.18C37.2408 71.8333 37.0675 72.6133 37.0675 73.52C37.0675 74.4133 37.2408 75.2 37.5875 75.88C37.9475 76.5467 38.4342 77.06 39.0475 77.42C39.6608 77.7667 40.3542 77.94 41.1275 77.94C41.8742 77.94 42.5542 77.76 43.1675 77.4C43.7942 77.04 44.2875 76.5267 44.6475 75.86C45.0075 75.1933 45.1875 74.42 45.1875 73.54ZM49.1436 73.54C49.1436 72.4067 49.3703 71.42 49.8236 70.58C50.2769 69.7267 50.9036 69.0733 51.7036 68.62C52.5036 68.1533 53.4169 67.92 54.4436 67.92C55.7903 67.92 56.8969 68.2533 57.7636 68.92C58.6436 69.5867 59.2103 70.4933 59.4636 71.64H57.9636C57.7769 70.8533 57.3703 70.24 56.7436 69.8C56.1303 69.3467 55.3636 69.12 54.4436 69.12C53.7103 69.12 53.0503 69.2867 52.4636 69.62C51.8769 69.9533 51.4103 70.4533 51.0636 71.12C50.7303 71.7733 50.5636 72.58 50.5636 73.54C50.5636 74.5 50.7303 75.3133 51.0636 75.98C51.4103 76.6467 51.8769 77.1467 52.4636 77.48C53.0503 77.8133 53.7103 77.98 54.4436 77.98C55.3636 77.98 56.1303 77.76 56.7436 77.32C57.3703 76.8667 57.7769 76.24 57.9636 75.44H59.4636C59.2103 76.56 58.6436 77.46 57.7636 78.14C56.8836 78.82 55.7769 79.16 54.4436 79.16C53.4169 79.16 52.5036 78.9333 51.7036 78.48C50.9036 78.0133 50.2769 77.36 49.8236 76.52C49.3703 75.6667 49.1436 74.6733 49.1436 73.54ZM63.8692 69.26V76.04C63.8692 76.7067 63.9959 77.1667 64.2492 77.42C64.5026 77.6733 64.9492 77.8 65.5892 77.8H66.8692V79H65.3692C64.3826 79 63.6492 78.7733 63.1692 78.32C62.6892 77.8533 62.4492 77.0933 62.4492 76.04V69.26H60.9292V68.08H62.4492V65.34H63.8692V68.08H66.8692V69.26H63.8692ZM81.1264 65.02V75.6C81.1264 76.6667 80.7997 77.5267 80.1464 78.18C79.4931 78.82 78.6197 79.14 77.5264 79.14C76.3931 79.14 75.4864 78.8 74.8064 78.12C74.1397 77.4267 73.8064 76.4933 73.8064 75.32H75.2264C75.2397 76.08 75.4264 76.7 75.7864 77.18C76.1597 77.66 76.7397 77.9 77.5264 77.9C78.2731 77.9 78.8264 77.68 79.1864 77.24C79.5464 76.8 79.7264 76.2533 79.7264 75.6V65.02H81.1264ZM88.8869 79.14C87.9669 79.14 87.1535 78.98 86.4469 78.66C85.7535 78.34 85.2069 77.8933 84.8069 77.32C84.4069 76.7467 84.1935 76.1067 84.1669 75.4H85.6469C85.7135 76.08 86.0135 76.68 86.5469 77.2C87.0802 77.7067 87.8602 77.96 88.8869 77.96C89.8335 77.96 90.5802 77.72 91.1269 77.24C91.6869 76.7467 91.9669 76.1267 91.9669 75.38C91.9669 74.78 91.8135 74.3 91.5069 73.94C91.2002 73.5667 90.8202 73.2933 90.3669 73.12C89.9135 72.9333 89.2869 72.7333 88.4869 72.52C87.5535 72.2667 86.8135 72.02 86.2669 71.78C85.7202 71.54 85.2535 71.1667 84.8669 70.66C84.4802 70.1533 84.2869 69.4667 84.2869 68.6C84.2869 67.88 84.4735 67.24 84.8469 66.68C85.2202 66.1067 85.7469 65.66 86.4269 65.34C87.1069 65.02 87.8869 64.86 88.7669 64.86C90.0602 64.86 91.1002 65.18 91.8869 65.82C92.6869 66.4467 93.1469 67.26 93.2669 68.26H91.7469C91.6535 67.6867 91.3402 67.18 90.8069 66.74C90.2735 66.2867 89.5535 66.06 88.6469 66.06C87.8069 66.06 87.1069 66.2867 86.5469 66.74C85.9869 67.18 85.7069 67.7867 85.7069 68.56C85.7069 69.1467 85.8602 69.62 86.1669 69.98C86.4735 70.34 86.8535 70.6133 87.3069 70.8C87.7735 70.9867 88.4002 71.1867 89.1869 71.4C90.0935 71.6533 90.8269 71.9067 91.3869 72.16C91.9469 72.4 92.4202 72.7733 92.8069 73.28C93.1935 73.7867 93.3869 74.4667 93.3869 75.32C93.3869 75.9733 93.2135 76.5933 92.8669 77.18C92.5202 77.7667 92.0069 78.24 91.3269 78.6C90.6469 78.96 89.8335 79.14 88.8869 79.14Z" fill="white"/>
</svg>
