<svg width="105" height="96" viewBox="0 0 105 96" fill="none" xmlns="http://www.w3.org/2000/svg">
<path fill-rule="evenodd" clip-rule="evenodd" d="M28.5 0V48H76.5V0H28.5ZM64.9918 22.9091C65.4468 22.9106 65.9639 22.9352 66.3529 22.9783C67.9368 23.1536 69.1703 23.8526 70.2197 25.1691C70.7423 25.8249 70.9211 26.1119 70.883 26.2346C70.8584 26.3138 70.4999 26.5765 69.3599 27.3506C68.24 28.111 67.8792 28.3387 67.7955 28.3387C67.7105 28.3387 67.5336 28.1524 67.2785 27.7948C66.7872 27.1061 66.2856 26.7918 65.5101 26.687C64.6762 26.574 63.9282 26.8429 63.5618 27.3875C63.2487 27.8528 63.2014 28.6016 63.4503 29.1456C63.7386 29.7758 64.2606 30.1242 66.2608 31.0213C68.5678 32.056 69.7369 32.7642 70.5884 33.6431C71.5053 34.5896 71.9698 35.6824 72.1125 37.2282C72.1822 37.9816 72.0971 38.8746 71.8863 39.6006C71.3693 41.3803 69.9744 42.6835 67.9296 43.2969C67.3644 43.4664 66.8385 43.5676 66.3183 43.6066C65.5241 43.6664 64.3873 43.6334 63.7031 43.5315C61.972 43.2737 60.0179 42.2433 59.0435 41.075C58.5652 40.5016 57.9545 39.5578 57.9545 39.3918C57.9545 39.3116 57.9934 39.2662 58.1472 39.1662C58.6032 38.8698 61.2169 37.3416 61.2676 37.3416C61.2982 37.3416 61.4347 37.5062 61.5708 37.7073C61.8792 38.1626 62.6373 38.9453 63.0227 39.2064C63.3376 39.4197 63.7402 39.5909 64.2182 39.7145C64.492 39.7843 64.6369 39.7968 65.2343 39.7968C65.8446 39.7966 65.9698 39.7861 66.2428 39.711C66.965 39.5122 67.5288 39.1009 67.7677 38.5983C67.8724 38.3812 67.8744 38.3541 67.8744 37.8274V37.2814L67.7461 37.021C67.4352 36.3897 66.7652 35.9566 64.6472 35.0182C63.6743 34.5871 62.4827 33.9793 62.0175 33.6769C60.9559 32.9868 60.22 32.1979 59.7372 31.2322C59.2568 30.2718 59.1852 29.9143 59.184 28.4703C59.1828 27.3399 59.181 27.3538 59.4098 26.6323C59.6174 25.9775 60.0424 25.2461 60.5115 24.7362C61.4479 23.7181 62.8158 23.0638 64.2804 22.9337C64.4678 22.9156 64.7188 22.9083 64.9918 22.9091ZM52.3932 24.0002C55.1836 24.0016 56.7836 24.0113 56.8093 24.0275C56.8576 24.0575 56.8636 24.301 56.8636 25.855V27.6478L54.0792 27.6579L51.2948 27.668V35.5946C51.2948 39.9544 51.286 43.5472 51.2739 43.5789C51.2543 43.6323 51.0401 43.6364 49.2284 43.6364H47.2049L47.184 43.5544C47.1705 43.5093 47.1606 39.9164 47.1604 35.5701L47.1597 27.6676L44.3753 27.6577L41.5909 27.6475V25.876C41.5909 24.4709 41.6006 24.0946 41.6379 24.0572C41.6762 24.0176 43.0972 24.0074 49.2201 24.0014C50.4007 24.0002 51.463 23.9996 52.3932 24.0002Z" fill="white"/>
<path d="M9.78 65.02V66.18H5.9V79H4.5V66.18H0.6V65.02H9.78ZM20.9906 68.08L14.5106 84.14H13.0506L15.1706 78.94L10.6906 68.08H12.2306L15.9506 77.4L19.5506 68.08H20.9906ZM24.2691 70.48C24.6157 69.7467 25.1624 69.14 25.9091 68.66C26.6691 68.1667 27.5691 67.92 28.6091 67.92C29.5957 67.92 30.4824 68.1533 31.2691 68.62C32.0691 69.0733 32.6891 69.7267 33.1291 70.58C33.5824 71.42 33.8091 72.4 33.8091 73.52C33.8091 74.64 33.5824 75.6267 33.1291 76.48C32.6891 77.3333 32.0691 77.9933 31.2691 78.46C30.4824 78.9267 29.5957 79.16 28.6091 79.16C27.5824 79.16 26.6891 78.92 25.9291 78.44C25.1691 77.9467 24.6157 77.3333 24.2691 76.6V84.16H22.8891V68.08H24.2691V70.48ZM32.3891 73.52C32.3891 72.6133 32.2091 71.8333 31.8491 71.18C31.5024 70.5133 31.0224 70.0067 30.4091 69.66C29.7957 69.3133 29.1024 69.14 28.3291 69.14C27.5824 69.14 26.8957 69.32 26.2691 69.68C25.6557 70.04 25.1691 70.5533 24.8091 71.22C24.4491 71.8867 24.2691 72.66 24.2691 73.54C24.2691 74.42 24.4491 75.1933 24.8091 75.86C25.1691 76.5267 25.6557 77.04 26.2691 77.4C26.8957 77.76 27.5824 77.94 28.3291 77.94C29.1024 77.94 29.7957 77.7667 30.4091 77.42C31.0224 77.06 31.5024 76.5467 31.8491 75.88C32.2091 75.2 32.3891 74.4133 32.3891 73.52ZM46.2652 72.98C46.2652 73.46 46.2518 73.8267 46.2252 74.08H37.1652C37.2052 74.9067 37.4052 75.6133 37.7652 76.2C38.1252 76.7867 38.5985 77.2333 39.1852 77.54C39.7718 77.8333 40.4118 77.98 41.1052 77.98C42.0118 77.98 42.7718 77.76 43.3852 77.32C44.0118 76.88 44.4252 76.2867 44.6252 75.54H46.1052C45.8385 76.6067 45.2652 77.48 44.3852 78.16C43.5185 78.8267 42.4252 79.16 41.1052 79.16C40.0785 79.16 39.1585 78.9333 38.3452 78.48C37.5318 78.0133 36.8918 77.36 36.4252 76.52C35.9718 75.6667 35.7452 74.6733 35.7452 73.54C35.7452 72.4067 35.9718 71.4133 36.4252 70.56C36.8785 69.7067 37.5118 69.0533 38.3252 68.6C39.1385 68.1467 40.0652 67.92 41.1052 67.92C42.1452 67.92 43.0518 68.1467 43.8252 68.6C44.6118 69.0533 45.2118 69.6667 45.6252 70.44C46.0518 71.2 46.2652 72.0467 46.2652 72.98ZM44.8452 72.94C44.8585 72.1267 44.6918 71.4333 44.3452 70.86C44.0118 70.2867 43.5518 69.8533 42.9652 69.56C42.3785 69.2667 41.7385 69.12 41.0452 69.12C40.0052 69.12 39.1185 69.4533 38.3852 70.12C37.6518 70.7867 37.2452 71.7267 37.1652 72.94H44.8452ZM53.0666 79.14C52.1466 79.14 51.3332 78.98 50.6266 78.66C49.9332 78.34 49.3866 77.8933 48.9866 77.32C48.5866 76.7467 48.3732 76.1067 48.3466 75.4H49.8266C49.8932 76.08 50.1932 76.68 50.7266 77.2C51.2599 77.7067 52.0399 77.96 53.0666 77.96C54.0132 77.96 54.7599 77.72 55.3066 77.24C55.8666 76.7467 56.1466 76.1267 56.1466 75.38C56.1466 74.78 55.9932 74.3 55.6866 73.94C55.3799 73.5667 54.9999 73.2933 54.5466 73.12C54.0932 72.9333 53.4666 72.7333 52.6666 72.52C51.7332 72.2667 50.9932 72.02 50.4466 71.78C49.8999 71.54 49.4332 71.1667 49.0466 70.66C48.6599 70.1533 48.4666 69.4667 48.4666 68.6C48.4666 67.88 48.6532 67.24 49.0266 66.68C49.3999 66.1067 49.9266 65.66 50.6066 65.34C51.2866 65.02 52.0666 64.86 52.9466 64.86C54.2399 64.86 55.2799 65.18 56.0666 65.82C56.8666 66.4467 57.3266 67.26 57.4466 68.26H55.9266C55.8332 67.6867 55.5199 67.18 54.9866 66.74C54.4532 66.2867 53.7332 66.06 52.8266 66.06C51.9866 66.06 51.2866 66.2867 50.7266 66.74C50.1666 67.18 49.8866 67.7867 49.8866 68.56C49.8866 69.1467 50.0399 69.62 50.3466 69.98C50.6532 70.34 51.0332 70.6133 51.4866 70.8C51.9532 70.9867 52.5799 71.1867 53.3666 71.4C54.2732 71.6533 55.0066 71.9067 55.5666 72.16C56.1266 72.4 56.5999 72.7733 56.9866 73.28C57.3732 73.7867 57.5666 74.4667 57.5666 75.32C57.5666 75.9733 57.3932 76.5933 57.0466 77.18C56.6999 77.7667 56.1866 78.24 55.5066 78.6C54.8266 78.96 54.0132 79.14 53.0666 79.14ZM59.6319 73.54C59.6319 72.4067 59.8585 71.42 60.3119 70.58C60.7652 69.7267 61.3919 69.0733 62.1919 68.62C62.9919 68.1533 63.9052 67.92 64.9319 67.92C66.2785 67.92 67.3852 68.2533 68.2519 68.92C69.1319 69.5867 69.6985 70.4933 69.9519 71.64H68.4519C68.2652 70.8533 67.8585 70.24 67.2319 69.8C66.6185 69.3467 65.8519 69.12 64.9319 69.12C64.1985 69.12 63.5385 69.2867 62.9519 69.62C62.3652 69.9533 61.8985 70.4533 61.5519 71.12C61.2185 71.7733 61.0519 72.58 61.0519 73.54C61.0519 74.5 61.2185 75.3133 61.5519 75.98C61.8985 76.6467 62.3652 77.1467 62.9519 77.48C63.5385 77.8133 64.1985 77.98 64.9319 77.98C65.8519 77.98 66.6185 77.76 67.2319 77.32C67.8585 76.8667 68.2652 76.24 68.4519 75.44H69.9519C69.6985 76.56 69.1319 77.46 68.2519 78.14C67.3719 78.82 66.2652 79.16 64.9319 79.16C63.9052 79.16 62.9919 78.9333 62.1919 78.48C61.3919 78.0133 60.7652 77.36 60.3119 76.52C59.8585 75.6667 59.6319 74.6733 59.6319 73.54ZM73.9375 70.02C74.2442 69.34 74.7108 68.8133 75.3375 68.44C75.9775 68.0667 76.7575 67.88 77.6775 67.88V69.34H77.2975C76.2842 69.34 75.4708 69.6133 74.8575 70.16C74.2442 70.7067 73.9375 71.62 73.9375 72.9V79H72.5375V68.08H73.9375V70.02ZM80.4836 66.02C80.2036 66.02 79.9636 65.92 79.7636 65.72C79.5636 65.52 79.4636 65.2733 79.4636 64.98C79.4636 64.6867 79.5636 64.4467 79.7636 64.26C79.9636 64.06 80.2036 63.96 80.4836 63.96C80.7636 63.96 81.0036 64.06 81.2036 64.26C81.4036 64.4467 81.5036 64.6867 81.5036 64.98C81.5036 65.2733 81.4036 65.52 81.2036 65.72C81.0036 65.92 80.7636 66.02 80.4836 66.02ZM81.1836 68.08V79H79.7836V68.08H81.1836ZM85.7339 70.48C86.0806 69.7467 86.6272 69.14 87.3739 68.66C88.1339 68.1667 89.0339 67.92 90.0739 67.92C91.0606 67.92 91.9472 68.1533 92.7339 68.62C93.5339 69.0733 94.1539 69.7267 94.5939 70.58C95.0472 71.42 95.2739 72.4 95.2739 73.52C95.2739 74.64 95.0472 75.6267 94.5939 76.48C94.1539 77.3333 93.5339 77.9933 92.7339 78.46C91.9472 78.9267 91.0606 79.16 90.0739 79.16C89.0472 79.16 88.1539 78.92 87.3939 78.44C86.6339 77.9467 86.0806 77.3333 85.7339 76.6V84.16H84.3539V68.08H85.7339V70.48ZM93.8539 73.52C93.8539 72.6133 93.6739 71.8333 93.3139 71.18C92.9672 70.5133 92.4872 70.0067 91.8739 69.66C91.2606 69.3133 90.5672 69.14 89.7939 69.14C89.0472 69.14 88.3606 69.32 87.7339 69.68C87.1206 70.04 86.6339 70.5533 86.2739 71.22C85.9139 71.8867 85.7339 72.66 85.7339 73.54C85.7339 74.42 85.9139 75.1933 86.2739 75.86C86.6339 76.5267 87.1206 77.04 87.7339 77.4C88.3606 77.76 89.0472 77.94 89.7939 77.94C90.5672 77.94 91.2606 77.7667 91.8739 77.42C92.4872 77.06 92.9672 76.5467 93.3139 75.88C93.6739 75.2 93.8539 74.4133 93.8539 73.52ZM99.67 69.26V76.04C99.67 76.7067 99.7967 77.1667 100.05 77.42C100.303 77.6733 100.75 77.8 101.39 77.8H102.67V79H101.17C100.183 79 99.45 78.7733 98.97 78.32C98.49 77.8533 98.25 77.0933 98.25 76.04V69.26H96.73V68.08H98.25V65.34H99.67V68.08H102.67V69.26H99.67Z" fill="white"/>
</svg>
